<svg xmlns="http://www.w3.org/2000/svg" xmlns:xlink="http://www.w3.org/1999/xlink" viewBox="0 0 524.41 238.11" version="1.1">
  <defs>
    <style>
      .cls-1, .cls-2 {
        fill: none;
      }

      .cls-3 {
        fill: #33435a;
      }

      .cls-4, .cls-5 {
        fill: #010101;
      }

      .cls-2 {
        stroke: #f1f2f2;
      }

      .cls-2, .cls-6 {
        stroke-miterlimit: 10;
      }

      .cls-7 {
        fill: #231f20;
      }

      .cls-6 {
        stroke: #010101;
        stroke-width: .5px;
      }

      .cls-6, .cls-8 {
        fill: #fff;
      }

      .cls-5 {
        fill-rule: evenodd;
      }

      .cls-9 {
        fill: #33455b;
      }

      .cls-10 {
        clip-path: url(#clippath);
      }
    </style>
    <clipPath id="clippath">
      <rect class="cls-1" x="444.33" y="217.51" width="54.36" height="12.25"/>
    </clipPath>
  </defs>
  <g id="Guides">
    <rect class="cls-2" x="-986.47" y="-262.17" width="3527.77" height="1868.07"/>
  </g>
  <g id="BG">
    <rect class="cls-8" width="524.41" height="238.11"/>
  </g>
  <g id="Icons">
    <g>
      <path class="cls-4" d="M29.24,105.11h2.02v2.02h-2.02v-2.02Z"/>
      <path class="cls-5" d="M42.32,79.42h13.71c.37,0,.66.3.66.66v13.71c0,.37-.3.66-.66.66h-13.71c-.37,0-.66-.3-.66-.66v-13.71c0-.37.3-.66.66-.66ZM55.36,93.13v-12.38h-12.38v12.38h12.38Z"/>
      <path class="cls-4" d="M48.22,86.13h2.02v2.02h-2.02v-2.02Z"/>
      <path class="cls-5" d="M23.34,79.42h13.71c.37,0,.66.3.66.66v13.71c0,.37-.3.66-.66.66h-13.71c-.37,0-.66-.3-.66-.66v-13.71c0-.37.3-.66.66-.66ZM36.38,93.13v-12.38h-12.38v12.38h12.38Z"/>
      <path class="cls-4" d="M29.24,86.13h2.02v2.02h-2.02v-2.02Z"/>
      <path class="cls-5" d="M23.34,98.4h13.71c.37,0,.66.3.66.66v13.71c0,.37-.3.66-.66.66h-13.71c-.37,0-.66-.3-.66-.66v-13.71c0-.37.3-.66.66-.66ZM36.38,112.11v-12.38h-12.38v12.38h12.38Z"/>
      <path class="cls-4" d="M48.65,111.19h2.11v2.11h-2.11v-2.11Z"/>
      <path class="cls-4" d="M54.45,111.19h2.11v2.11h-2.11v-2.11Z"/>
      <path class="cls-4" d="M49.05,98.4c.33,0,.6.24.66.56v.11s0,6.78,0,6.78h5.65v-6.78c0-.33.24-.6.56-.66h.11c.33,0,.6.23.66.55v.11s0,7.45,0,7.45c0,.33-.24.6-.56.66h-.11s-6.98,0-6.98,0c-.33,0-.6-.24-.66-.56v-.11s0-6.78,0-6.78h-5.4v13.04c0,.33-.24.6-.56.66h-.11c-.33,0-.6-.23-.66-.55v-.11s0-13.71,0-13.71c0-.33.24-.6.56-.66h.11s6.73,0,6.73,0Z"/>
    </g>
    <g>
      <path class="cls-5" d="M39.69,182.83c-8.61,0-15.59,6.98-15.59,15.59s6.98,15.59,15.59,15.59,15.59-6.98,15.59-15.59-6.98-15.59-15.59-15.59ZM22.68,198.42c0-9.39,7.61-17.01,17.01-17.01s17.01,7.61,17.01,17.01-7.61,17.01-17.01,17.01-17.01-7.61-17.01-17.01Z"/>
      <path class="cls-5" d="M46.51,194.04c.28.27.3.72.03,1l-8.52,8.98-4.33-4.56c-.27-.28-.26-.73.03-1,.28-.27.73-.26,1,.03l3.3,3.48,7.49-7.9c.27-.28.72-.3,1-.03Z"/>
    </g>
    <g>
      <path class="cls-3" d="M53.9,158.72h-28.43c-1.54,0-2.8-1.25-2.8-2.8v-17.06c0-1.54,1.25-2.8,2.8-2.8h28.43c1.54,0,2.8,1.25,2.8,2.8v17.06c0,1.54-1.25,2.8-2.8,2.8ZM25.47,137.41c-.81,0-1.47.66-1.47,1.47v17.06c0,.81.66,1.47,1.47,1.47h28.43c.81,0,1.47-.66,1.47-1.47v-17.06c0-.81-.66-1.47-1.47-1.47h-28.43Z"/>
      <path class="cls-3" d="M39.28,155.37v-1.58c-1.08-.09-1.93-.46-2.54-1.08-.63-.65-.95-1.55-.95-2.68v-.14h1.28v.14c0,.82.24,1.47.71,1.93.47.46,1.15.7,2.01.7.75,0,1.36-.2,1.83-.6.47-.4.69-.9.69-1.54,0-.57-.19-1.04-.56-1.4-.38-.37-1.07-.74-2.06-1.08-1.26-.4-2.17-.88-2.69-1.44-.53-.56-.79-1.3-.79-2.19,0-.94.29-1.71.87-2.29.55-.56,1.29-.89,2.22-.99v-1.69h1.13v1.69c.95.11,1.7.49,2.23,1.13.55.66.83,1.57.83,2.7v.14h-1.27v-.14c0-.83-.22-1.5-.64-1.98-.42-.48-1.01-.72-1.74-.72s-1.33.2-1.74.58c-.41.39-.62.89-.62,1.55s.18,1.11.56,1.46c.39.36,1.06.7,2.01,1.03.99.34,1.7.65,2.15.96.46.31.8.69,1.03,1.12.23.43.34.95.34,1.55,0,.94-.3,1.71-.89,2.3-.56.55-1.33.88-2.29.98v1.59h-1.12Z"/>
    </g>
  </g>
  <g id="QR_Border" data-name="QR Border">
    <path class="cls-6" d="M320.3,22.68h170.11c6.25,0,11.33,5.07,11.33,11.33v170.11c0,6.25-5.07,11.33-11.33,11.33h-170.11c-6.25,0-11.33-5.07-11.33-11.33V34c0-6.25,5.07-11.33,11.33-11.33Z" shape-rendering="crispEdges"/>
  <svg height="200" width="200" viewBox="0 0 43 43" role="img" x="305" y="20"><path fill="#000000" d="M3 3h7v1H3zM11 3h3v1H11zM16 3h5v1H16zM22 3h1v1H22zM24 3h1v1H24zM27 3h4v1H27zM33,3 h7v1H33zM3 4h1v1H3zM9 4h1v1H9zM11 4h1v1H11zM13 4h1v1H13zM15 4h1v1H15zM19 4h1v1H19zM21 4h1v1H21zM23 4h1v1H23zM25 4h4v1H25zM30 4h2v1H30zM33 4h1v1H33zM39,4 h1v1H39zM3 5h1v1H3zM5 5h3v1H5zM9 5h1v1H9zM11 5h1v1H11zM13 5h1v1H13zM15 5h1v1H15zM18 5h4v1H18zM25 5h1v1H25zM27 5h1v1H27zM31 5h1v1H31zM33 5h1v1H33zM35 5h3v1H35zM39,5 h1v1H39zM3 6h1v1H3zM5 6h3v1H5zM9 6h1v1H9zM11 6h2v1H11zM15 6h5v1H15zM25 6h2v1H25zM29 6h1v1H29zM33 6h1v1H33zM35 6h3v1H35zM39,6 h1v1H39zM3 7h1v1H3zM5 7h3v1H5zM9 7h1v1H9zM11 7h2v1H11zM14 7h6v1H14zM23 7h2v1H23zM26 7h1v1H26zM28 7h4v1H28zM33 7h1v1H33zM35 7h3v1H35zM39,7 h1v1H39zM3 8h1v1H3zM9 8h1v1H9zM15 8h4v1H15zM20 8h1v1H20zM24 8h1v1H24zM26 8h2v1H26zM29 8h3v1H29zM33 8h1v1H33zM39,8 h1v1H39zM3 9h7v1H3zM11 9h1v1H11zM13 9h1v1H13zM15 9h1v1H15zM17 9h1v1H17zM19 9h1v1H19zM21 9h1v1H21zM23 9h1v1H23zM25 9h1v1H25zM27 9h1v1H27zM29 9h1v1H29zM31 9h1v1H31zM33,9 h7v1H33zM11 10h4v1H11zM18 10h1v1H18zM21 10h1v1H21zM24 10h1v1H24zM28 10h2v1H28zM31 10h1v1H31zM4 11h2v1H4zM7 11h1v1H7zM9 11h2v1H9zM12 11h1v1H12zM19 11h2v1H19zM22 11h1v1H22zM24 11h1v1H24zM27 11h2v1H27zM30 11h2v1H30zM33 11h1v1H33zM35,11 h5v1H35zM3 12h1v1H3zM5 12h1v1H5zM7 12h1v1H7zM11 12h10v1H11zM25 12h1v1H25zM27 12h1v1H27zM31 12h1v1H31zM33 12h1v1H33zM38,12 h2v1H38zM3 13h1v1H3zM5 13h2v1H5zM8 13h2v1H8zM11 13h1v1H11zM13 13h1v1H13zM15 13h3v1H15zM20 13h2v1H20zM23 13h1v1H23zM25 13h1v1H25zM27 13h2v1H27zM33,13 h7v1H33zM4 14h1v1H4zM6 14h1v1H6zM8 14h1v1H8zM10 14h3v1H10zM14 14h2v1H14zM17 14h1v1H17zM22 14h1v1H22zM24 14h1v1H24zM26 14h4v1H26zM32 14h1v1H32zM34 14h1v1H34zM39,14 h1v1H39zM5 15h1v1H5zM7 15h3v1H7zM11 15h1v1H11zM15 15h1v1H15zM20 15h1v1H20zM23 15h2v1H23zM27 15h2v1H27zM31 15h3v1H31zM38 15h1v1H38zM5 16h3v1H5zM13 16h1v1H13zM16 16h2v1H16zM19 16h1v1H19zM21 16h1v1H21zM23 16h1v1H23zM29 16h1v1H29zM31 16h1v1H31zM33 16h1v1H33zM36 16h2v1H36zM39,16 h1v1H39zM3 17h2v1H3zM6 17h2v1H6zM9 17h2v1H9zM13 17h4v1H13zM18 17h3v1H18zM23 17h2v1H23zM28 17h1v1H28zM31 17h2v1H31zM34 17h2v1H34zM37,17 h3v1H37zM3 18h1v1H3zM8 18h1v1H8zM10 18h1v1H10zM13 18h2v1H13zM17 18h2v1H17zM20 18h1v1H20zM22 18h1v1H22zM26 18h1v1H26zM28 18h4v1H28zM33 18h2v1H33zM3 19h3v1H3zM9 19h1v1H9zM12 19h1v1H12zM14 19h1v1H14zM16 19h1v1H16zM20 19h1v1H20zM26 19h4v1H26zM31 19h3v1H31zM36 19h1v1H36zM4 20h4v1H4zM10 20h1v1H10zM12 20h5v1H12zM19 20h4v1H19zM24 20h1v1H24zM26 20h3v1H26zM31 20h1v1H31zM33 20h1v1H33zM36 20h1v1H36zM38,20 h2v1H38zM3 21h1v1H3zM5 21h1v1H5zM7 21h4v1H7zM12 21h4v1H12zM17 21h1v1H17zM21 21h1v1H21zM24 21h6v1H24zM31 21h2v1H31zM36 21h1v1H36zM38,21 h2v1H38zM5 22h1v1H5zM7 22h2v1H7zM11 22h1v1H11zM16 22h3v1H16zM21 22h1v1H21zM23 22h2v1H23zM27 22h3v1H27zM31 22h2v1H31zM35 22h1v1H35zM39,22 h1v1H39zM3 23h2v1H3zM7 23h1v1H7zM9 23h2v1H9zM14 23h1v1H14zM18 23h1v1H18zM20 23h1v1H20zM22 23h3v1H22zM26 23h3v1H26zM30 23h5v1H30zM38,23 h2v1H38zM3 24h4v1H3zM8 24h1v1H8zM10 24h4v1H10zM16 24h2v1H16zM20 24h2v1H20zM23 24h2v1H23zM27 24h3v1H27zM33 24h1v1H33zM36 24h1v1H36zM38,24 h2v1H38zM4 25h1v1H4zM6 25h2v1H6zM9 25h1v1H9zM12 25h2v1H12zM15 25h1v1H15zM21 25h1v1H21zM23 25h1v1H23zM25 25h1v1H25zM27 25h1v1H27zM31 25h1v1H31zM33 25h1v1H33zM35,25 h5v1H35zM4 26h1v1H4zM7 26h2v1H7zM10 26h2v1H10zM15 26h1v1H15zM17 26h2v1H17zM21 26h1v1H21zM24 26h1v1H24zM27 26h2v1H27zM32 26h2v1H32zM38,26 h2v1H38zM3 27h1v1H3zM5 27h1v1H5zM8 27h4v1H8zM18 27h3v1H18zM22 27h3v1H22zM26 27h1v1H26zM28 27h1v1H28zM30 27h2v1H30zM33 27h2v1H33zM38 27h1v1H38zM4 28h1v1H4zM7 28h2v1H7zM10 28h2v1H10zM16 28h1v1H16zM19 28h2v1H19zM22 28h3v1H22zM27 28h2v1H27zM31 28h3v1H31zM37 28h1v1H37zM39,28 h1v1H39zM3 29h1v1H3zM5 29h2v1H5zM8 29h5v1H8zM14 29h4v1H14zM25 29h1v1H25zM27 29h1v1H27zM29 29h1v1H29zM33 29h3v1H33zM37 29h1v1H37zM39,29 h1v1H39zM4 30h1v1H4zM6 30h2v1H6zM10 30h3v1H10zM17 30h3v1H17zM22 30h1v1H22zM24 30h3v1H24zM28 30h1v1H28zM30 30h2v1H30zM33 30h1v1H33zM35 30h2v1H35zM38,30 h2v1H38zM3 31h1v1H3zM5 31h3v1H5zM9 31h4v1H9zM14 31h1v1H14zM19 31h1v1H19zM21 31h4v1H21zM26 31h1v1H26zM28 31h1v1H28zM30 31h7v1H30zM11 32h2v1H11zM14 32h4v1H14zM20 32h1v1H20zM22 32h1v1H22zM24 32h1v1H24zM27 32h1v1H27zM31 32h1v1H31zM35 32h1v1H35zM38,32 h2v1H38zM3 33h7v1H3zM11 33h1v1H11zM13 33h1v1H13zM15 33h2v1H15zM18 33h2v1H18zM22 33h1v1H22zM25 33h1v1H25zM28 33h1v1H28zM30 33h2v1H30zM33 33h1v1H33zM35 33h1v1H35zM37,33 h3v1H37zM3 34h1v1H3zM9 34h1v1H9zM14 34h1v1H14zM20 34h3v1H20zM24 34h3v1H24zM28 34h2v1H28zM31 34h1v1H31zM35 34h1v1H35zM3 35h1v1H3zM5 35h3v1H5zM9 35h1v1H9zM11 35h5v1H11zM17 35h1v1H17zM19 35h1v1H19zM21 35h3v1H21zM25 35h1v1H25zM27 35h2v1H27zM31 35h6v1H31zM39,35 h1v1H39zM3 36h1v1H3zM5 36h3v1H5zM9 36h1v1H9zM12 36h1v1H12zM16 36h5v1H16zM22 36h2v1H22zM25 36h2v1H25zM28 36h2v1H28zM32 36h1v1H32zM34 36h2v1H34zM39,36 h1v1H39zM3 37h1v1H3zM5 37h3v1H5zM9 37h1v1H9zM11 37h1v1H11zM13 37h4v1H13zM22 37h3v1H22zM28 37h2v1H28zM32 37h1v1H32zM34 37h4v1H34zM39,37 h1v1H39zM3 38h1v1H3zM9 38h1v1H9zM11 38h1v1H11zM13 38h1v1H13zM16 38h1v1H16zM18 38h2v1H18zM23 38h2v1H23zM26 38h6v1H26zM34 38h2v1H34zM38 38h1v1H38zM3 39h7v1H3zM17 39h2v1H17zM22 39h3v1H22zM27 39h3v1H27zM31 39h2v1H31zM34 39h1v1H34zM38,39 h2v1H38z" shape-rendering="crispEdges"/></svg></g>
  <g id="FR">
    <g id="PAY_Text_FR" data-name="PAY Text FR">
      <g id="Body_Text_FR_copy" data-name="Body Text FR copy">
        <g>
          <path class="cls-7" d="M78.84,92.54c-.91,0-1.73-.12-2.46-.34-.74-.23-1.38-.56-1.92-.98l.56-1.31c.36.28.74.51,1.13.69s.81.32,1.25.41.93.14,1.45.14c.9,0,1.55-.16,1.98-.48.42-.32.63-.74.63-1.26,0-.45-.15-.79-.44-1.04s-.81-.44-1.54-.59l-1.74-.35c-1.03-.21-1.81-.56-2.31-1.05-.51-.49-.76-1.15-.76-1.99,0-.68.18-1.28.54-1.79.36-.51.87-.91,1.51-1.18.64-.28,1.4-.42,2.26-.42.8,0,1.54.12,2.21.34.67.23,1.24.57,1.7,1.02l-.54,1.26c-.48-.42-.99-.72-1.54-.92s-1.16-.3-1.86-.3c-.82,0-1.46.17-1.93.51-.46.34-.7.81-.7,1.39,0,.47.15.84.44,1.1.29.27.78.47,1.46.61l1.74.34c1.08.22,1.87.57,2.38,1.03.51.46.77,1.1.77,1.91,0,.65-.17,1.22-.52,1.71-.35.49-.84.87-1.48,1.14-.64.27-1.4.41-2.27.41Z"/>
          <path class="cls-7" d="M88.55,92.54c-.81,0-1.52-.17-2.12-.5s-1.07-.82-1.39-1.46c-.33-.63-.49-1.39-.49-2.26s.17-1.6.5-2.22c.33-.62.79-1.09,1.39-1.42.6-.33,1.3-.49,2.11-.49.52,0,1.03.09,1.52.26.49.18.9.42,1.22.74l-.53,1.14c-.3-.29-.63-.5-1.01-.65-.37-.14-.74-.22-1.09-.22-.77,0-1.37.25-1.81.74-.44.49-.66,1.2-.66,2.13s.22,1.66.66,2.16c.44.5,1.04.75,1.81.75.34,0,.7-.07,1.07-.2.37-.13.71-.35,1.02-.65l.53,1.14c-.33.32-.74.57-1.24.74-.5.18-1,.26-1.5.26Z"/>
          <path class="cls-7" d="M96.02,92.54c-.71,0-1.34-.17-1.87-.5-.53-.33-.95-.81-1.24-1.44-.29-.63-.44-1.38-.44-2.24s.15-1.62.44-2.24c.29-.62.71-1.1,1.24-1.43s1.16-.5,1.87-.5,1.32.18,1.84.53c.52.35.87.83,1.04,1.44h-.18l.16-1.82h1.57c-.03.33-.06.66-.09.98-.03.33-.04.64-.04.95v6.13h-1.62v-1.79h.18c-.17.6-.52,1.07-1.05,1.42s-1.13.52-1.82.52ZM96.42,91.27c.69,0,1.25-.25,1.67-.74.42-.49.63-1.22.63-2.18s-.21-1.68-.63-2.17c-.42-.48-.98-.73-1.67-.73s-1.27.24-1.69.73c-.42.49-.63,1.21-.63,2.17s.21,1.69.62,2.18c.42.49.98.74,1.7.74Z"/>
          <path class="cls-7" d="M102.68,92.39v-6.13c0-.31-.01-.63-.04-.95-.03-.33-.06-.65-.09-.98h1.57l.14,1.7h-.19c.25-.6.62-1.05,1.14-1.37s1.1-.47,1.78-.47c.95,0,1.67.26,2.15.78s.73,1.33.73,2.43v4.99h-1.62v-4.9c0-.71-.14-1.23-.42-1.54-.28-.31-.71-.47-1.29-.47-.68,0-1.23.21-1.63.63-.41.42-.61.99-.61,1.7v4.58h-1.62Z"/>
          <path class="cls-7" d="M112.16,92.39v-6.13c0-.31-.01-.63-.04-.95-.03-.33-.06-.65-.09-.98h1.57l.14,1.7h-.19c.25-.6.62-1.05,1.14-1.37s1.1-.47,1.78-.47c.95,0,1.67.26,2.15.78s.73,1.33.73,2.43v4.99h-1.62v-4.9c0-.71-.14-1.23-.42-1.54-.28-.31-.71-.47-1.29-.47-.68,0-1.23.21-1.63.63-.41.42-.61.99-.61,1.7v4.58h-1.62Z"/>
          <path class="cls-7" d="M125.38,92.54c-1.3,0-2.33-.37-3.07-1.1-.75-.74-1.12-1.75-1.12-3.06,0-.84.16-1.58.49-2.21.33-.63.78-1.12,1.36-1.46.58-.35,1.26-.52,2.02-.52s1.39.16,1.9.48c.51.32.9.77,1.17,1.35.27.58.4,1.27.4,2.06v.51h-6.08v-.93h4.98l-.27.21c0-.8-.18-1.42-.54-1.86s-.87-.66-1.54-.66c-.75,0-1.32.26-1.73.78-.41.52-.61,1.23-.61,2.14v.16c0,.95.23,1.66.7,2.14.46.48,1.12.72,1.98.72.47,0,.91-.07,1.32-.2.41-.13.8-.35,1.18-.66l.53,1.1c-.37.33-.83.58-1.36.76-.53.18-1.1.26-1.7.26Z"/>
          <path class="cls-7" d="M129.92,92.39v-1.07l5.25-6.14.02.4h-5.26v-1.25h6.74v1.07l-5.3,6.19-.02-.43h5.49v1.23h-6.91Z"/>
          <path class="cls-7" d="M142.95,92.39v-11.78h1.62v11.78h-1.62Z"/>
          <path class="cls-7" d="M150.66,92.54c-1.3,0-2.33-.37-3.07-1.1-.75-.74-1.12-1.75-1.12-3.06,0-.84.16-1.58.49-2.21.33-.63.78-1.12,1.36-1.46.58-.35,1.26-.52,2.02-.52s1.39.16,1.9.48c.51.32.9.77,1.17,1.35.27.58.4,1.27.4,2.06v.51h-6.08v-.93h4.98l-.27.21c0-.8-.18-1.42-.54-1.86s-.87-.66-1.54-.66c-.75,0-1.32.26-1.73.78-.41.52-.61,1.23-.61,2.14v.16c0,.95.23,1.66.7,2.14.46.48,1.12.72,1.98.72.47,0,.91-.07,1.32-.2.41-.13.8-.35,1.18-.66l.53,1.1c-.37.33-.83.58-1.36.76-.53.18-1.1.26-1.7.26Z"/>
          <path class="cls-7" d="M159.7,86.75c0-1.18.21-2.21.62-3.07s1.02-1.53,1.82-2,1.74-.7,2.84-.7,2.03.23,2.82.7c.79.47,1.4,1.14,1.83,2,.43.86.65,1.88.65,3.06s-.22,2.21-.65,3.08c-.43.87-1.05,1.54-1.84,2.02-.79.47-1.73.71-2.81.71s-2.04-.24-2.83-.71-1.39-1.15-1.82-2.02c-.42-.87-.63-1.89-.63-3.06ZM161.44,86.75c0,1.37.3,2.43.9,3.2.6.77,1.48,1.15,2.64,1.15s2.01-.38,2.62-1.14.93-1.83.93-3.21-.31-2.44-.92-3.2-1.49-1.14-2.63-1.14-2.04.38-2.64,1.14c-.6.76-.9,1.82-.9,3.2ZM168.02,95.47c-.33-.2-.66-.46-1-.78s-.65-.67-.94-1.06c-.29-.39-.55-.79-.76-1.19l1.38-.56c.28.55.64,1.06,1.08,1.51.44.45.9.84,1.37,1.16l-1.12.93Z"/>
          <path class="cls-7" d="M172.55,92.39v-11.28h4.77c1.21,0,2.14.29,2.8.86.66.57.99,1.37.99,2.39,0,.67-.15,1.25-.45,1.73-.3.48-.72.85-1.26,1.1-.54.25-1.18.38-1.92.38l.26-.26h.43c.44,0,.83.11,1.18.34.35.22.63.58.86,1.07l1.62,3.68h-1.82l-1.6-3.7c-.16-.44-.41-.72-.74-.85s-.75-.19-1.24-.19h-2.19v4.74h-1.66ZM174.21,86.39h2.83c.8,0,1.41-.17,1.82-.51.41-.34.62-.83.62-1.47s-.21-1.14-.62-1.47c-.41-.33-1.02-.5-1.82-.5h-2.83v3.95Z"/>
          <path class="cls-7" d="M191.36,92.54c-.81,0-1.52-.17-2.12-.5s-1.07-.82-1.39-1.46c-.33-.63-.49-1.39-.49-2.26s.17-1.6.5-2.22c.33-.62.79-1.09,1.39-1.42.6-.33,1.3-.49,2.11-.49.52,0,1.03.09,1.52.26.49.18.9.42,1.22.74l-.53,1.14c-.3-.29-.63-.5-1.01-.65-.37-.14-.74-.22-1.09-.22-.77,0-1.37.25-1.81.74-.44.49-.66,1.2-.66,2.13s.22,1.66.66,2.16c.44.5,1.04.75,1.81.75.34,0,.7-.07,1.07-.2.37-.13.71-.35,1.02-.65l.53,1.14c-.33.32-.74.57-1.24.74-.5.18-1,.26-1.5.26Z"/>
          <path class="cls-7" d="M199.11,92.54c-.8,0-1.49-.17-2.08-.5s-1.04-.82-1.36-1.44c-.32-.62-.48-1.37-.48-2.23s.16-1.61.48-2.23c.32-.62.77-1.1,1.36-1.44s1.28-.5,2.08-.5,1.5.17,2.09.5,1.05.82,1.38,1.44.49,1.37.49,2.23-.16,1.61-.49,2.23-.78,1.1-1.38,1.44-1.29.5-2.09.5ZM199.11,91.27c.7,0,1.26-.25,1.68-.74.42-.49.62-1.22.62-2.18s-.21-1.68-.62-2.17c-.42-.48-.98-.73-1.68-.73s-1.25.24-1.66.73c-.42.49-.62,1.21-.62,2.17s.21,1.69.62,2.18c.42.49.97.74,1.66.74Z"/>
          <path class="cls-7" d="M208.04,92.54c-.7,0-1.33-.17-1.86-.5-.54-.33-.96-.81-1.25-1.44-.29-.63-.44-1.38-.44-2.24s.15-1.62.44-2.24c.29-.62.71-1.1,1.25-1.43.54-.34,1.16-.5,1.86-.5s1.3.17,1.83.52c.53.35.88.82,1.05,1.42h-.19v-5.5h1.62v11.78h-1.6v-1.82h.19c-.18.61-.53,1.09-1.06,1.44s-1.14.53-1.84.53ZM208.44,91.27c.69,0,1.25-.25,1.68-.74.43-.49.64-1.22.64-2.18s-.21-1.68-.64-2.17c-.43-.48-.99-.73-1.68-.73s-1.27.24-1.69.73c-.42.49-.63,1.21-.63,2.17s.21,1.69.63,2.18c.42.49.98.74,1.69.74Z"/>
          <path class="cls-7" d="M218.42,92.54c-1.3,0-2.33-.37-3.07-1.1-.75-.74-1.12-1.75-1.12-3.06,0-.84.16-1.58.49-2.21s.78-1.12,1.36-1.46c.58-.35,1.26-.52,2.02-.52s1.39.16,1.9.48c.51.32.9.77,1.17,1.35.27.58.4,1.27.4,2.06v.51h-6.08v-.93h4.98l-.27.21c0-.8-.18-1.42-.54-1.86s-.87-.66-1.54-.66c-.75,0-1.32.26-1.73.78-.41.52-.61,1.23-.61,2.14v.16c0,.95.23,1.66.7,2.14.46.48,1.12.72,1.98.72.47,0,.91-.07,1.32-.2.41-.13.8-.35,1.18-.66l.53,1.1c-.37.33-.83.58-1.36.76-.53.18-1.1.26-1.7.26Z"/>
          <path class="cls-7" d="M230.79,92.54c-.71,0-1.34-.17-1.87-.5-.53-.33-.95-.81-1.24-1.44-.29-.63-.44-1.38-.44-2.24s.15-1.62.44-2.24c.29-.62.71-1.1,1.24-1.43s1.16-.5,1.87-.5,1.32.18,1.84.53c.52.35.87.83,1.04,1.44h-.18l.16-1.82h1.57c-.03.33-.06.66-.09.98-.03.33-.04.64-.04.95v6.13h-1.62v-1.79h.18c-.17.6-.52,1.07-1.05,1.42-.53.35-1.13.52-1.82.52ZM231.19,91.27c.69,0,1.25-.25,1.67-.74.42-.49.63-1.22.63-2.18s-.21-1.68-.63-2.17c-.42-.48-.98-.73-1.67-.73s-1.27.24-1.69.73c-.42.49-.63,1.21-.63,2.17s.21,1.69.62,2.18c.42.49.98.74,1.7.74Z"/>
          <path class="cls-7" d="M239.73,92.39l-3.46-8.06h1.73l2.72,6.74h-.46l2.77-6.74h1.65l-3.47,8.06h-1.47Z"/>
          <path class="cls-7" d="M249.54,92.54c-1.3,0-2.33-.37-3.07-1.1-.75-.74-1.12-1.75-1.12-3.06,0-.84.16-1.58.49-2.21.33-.63.78-1.12,1.36-1.46.58-.35,1.26-.52,2.02-.52s1.39.16,1.9.48c.51.32.9.77,1.17,1.35.27.58.4,1.27.4,2.06v.51h-6.08v-.93h4.98l-.27.21c0-.8-.18-1.42-.54-1.86s-.87-.66-1.54-.66c-.75,0-1.32.26-1.73.78-.41.52-.61,1.23-.61,2.14v.16c0,.95.23,1.66.7,2.14.46.48,1.12.72,1.98.72.47,0,.91-.07,1.32-.2.41-.13.8-.35,1.18-.66l.53,1.1c-.37.33-.83.58-1.36.76-.53.18-1.1.26-1.7.26Z"/>
          <path class="cls-7" d="M258.08,92.54c-.81,0-1.52-.17-2.12-.5s-1.07-.82-1.39-1.46c-.33-.63-.49-1.39-.49-2.26s.17-1.6.5-2.22c.33-.62.79-1.09,1.39-1.42.6-.33,1.3-.49,2.11-.49.52,0,1.03.09,1.52.26.49.18.9.42,1.22.74l-.53,1.14c-.3-.29-.63-.5-1.01-.65-.37-.14-.74-.22-1.09-.22-.77,0-1.37.25-1.81.74-.44.49-.66,1.2-.66,2.13s.22,1.66.66,2.16c.44.5,1.04.75,1.81.75.34,0,.7-.07,1.07-.2.37-.13.71-.35,1.02-.65l.53,1.14c-.33.32-.74.57-1.24.74-.5.18-.99.26-1.5.26Z"/>
          <path class="cls-7" d="M77.25,113.39l-3.46-8.06h1.73l2.72,6.74h-.46l2.77-6.74h1.65l-3.47,8.06h-1.47Z"/>
          <path class="cls-7" d="M86.79,113.54c-.8,0-1.49-.17-2.08-.5s-1.04-.82-1.36-1.44c-.32-.62-.48-1.37-.48-2.23s.16-1.61.48-2.23c.32-.62.77-1.1,1.36-1.44s1.28-.5,2.08-.5,1.5.17,2.09.5,1.05.82,1.38,1.44.49,1.37.49,2.23-.16,1.61-.49,2.23-.78,1.1-1.38,1.44-1.29.5-2.09.5ZM86.79,112.27c.7,0,1.26-.25,1.68-.74.42-.49.62-1.22.62-2.18s-.21-1.68-.62-2.17c-.42-.48-.98-.73-1.68-.73s-1.25.24-1.66.73c-.42.49-.62,1.21-.62,2.17s.21,1.69.62,2.18c.42.49.97.74,1.66.74Z"/>
          <path class="cls-7" d="M95.68,113.54c-.87,0-1.54-.24-1.98-.71s-.67-1.19-.67-2.14v-4.11h-1.57v-1.25h1.57v-2.13l1.62-.43v2.56h2.24v1.25h-2.24v3.97c0,.6.11,1.02.32,1.28.21.26.52.38.93.38.2,0,.38-.02.54-.06.15-.04.3-.08.42-.14v1.31c-.16.06-.35.11-.56.15-.21.04-.42.06-.61.06Z"/>
          <path class="cls-7" d="M98.32,113.39v-6.06c0-.33,0-.66-.02-1-.02-.34-.04-.67-.07-1h1.57l.18,2.08h-.26c.11-.5.29-.92.54-1.25.26-.33.57-.58.94-.74s.75-.24,1.16-.24c.17,0,.31,0,.43.02.12.02.23.04.35.07l-.02,1.44c-.18-.07-.34-.12-.47-.14-.13-.02-.3-.02-.49-.02-.47,0-.87.1-1.2.31-.33.21-.58.49-.75.84-.17.35-.26.73-.26,1.14v4.54h-1.63Z"/>
          <path class="cls-7" d="M108,113.54c-1.3,0-2.33-.37-3.07-1.1-.75-.74-1.12-1.75-1.12-3.06,0-.84.16-1.58.49-2.21s.78-1.12,1.36-1.46c.58-.35,1.26-.52,2.02-.52s1.39.16,1.9.48c.51.32.9.77,1.17,1.35.27.58.4,1.27.4,2.06v.51h-6.08v-.93h4.98l-.27.21c0-.8-.18-1.42-.54-1.86s-.87-.66-1.54-.66c-.75,0-1.32.26-1.73.78-.41.52-.61,1.23-.61,2.14v.16c0,.95.23,1.66.7,2.14.46.48,1.12.72,1.98.72.47,0,.91-.07,1.32-.2.41-.13.8-.35,1.18-.66l.53,1.1c-.37.33-.83.58-1.36.76-.53.18-1.1.26-1.7.26Z"/>
          <path class="cls-7" d="M120.37,113.54c-.71,0-1.34-.17-1.87-.5-.53-.33-.95-.81-1.24-1.44-.29-.63-.44-1.38-.44-2.24s.15-1.62.44-2.24c.29-.62.71-1.1,1.24-1.43s1.16-.5,1.87-.5,1.32.18,1.84.53c.52.35.87.83,1.04,1.44h-.18l.16-1.82h1.57c-.03.33-.06.66-.09.98-.03.33-.04.64-.04.95v6.13h-1.62v-1.79h.18c-.17.6-.52,1.07-1.05,1.42-.53.35-1.13.52-1.82.52ZM120.77,112.27c.69,0,1.25-.25,1.67-.74.42-.49.63-1.22.63-2.18s-.21-1.68-.63-2.17c-.42-.48-.98-.73-1.67-.73s-1.27.24-1.69.73c-.42.49-.63,1.21-.63,2.17s.21,1.69.62,2.18c.42.49.98.74,1.7.74Z"/>
          <path class="cls-7" d="M127.03,116.85v-9.58c0-.31-.01-.63-.04-.95-.03-.33-.06-.65-.09-.98h1.57l.16,1.82h-.18c.17-.61.51-1.09,1.03-1.44.52-.35,1.13-.53,1.85-.53s1.34.17,1.87.5.95.81,1.24,1.43c.29.62.44,1.37.44,2.24s-.15,1.61-.44,2.24c-.29.63-.71,1.11-1.24,1.44-.53.33-1.16.5-1.87.5s-1.31-.17-1.83-.52c-.52-.35-.86-.82-1.03-1.42h.18v5.25h-1.62ZM130.93,112.27c.7,0,1.27-.25,1.69-.74.42-.49.63-1.22.63-2.18s-.21-1.68-.63-2.17c-.42-.48-.98-.73-1.69-.73s-1.27.24-1.69.73c-.42.49-.63,1.21-.63,2.17s.21,1.69.63,2.18c.42.49.98.74,1.69.74Z"/>
          <path class="cls-7" d="M136.77,116.85v-9.58c0-.31-.01-.63-.04-.95-.03-.33-.06-.65-.09-.98h1.57l.16,1.82h-.18c.17-.61.51-1.09,1.03-1.44.52-.35,1.13-.53,1.85-.53s1.34.17,1.87.5.95.81,1.24,1.43c.29.62.44,1.37.44,2.24s-.15,1.61-.44,2.24c-.29.63-.71,1.11-1.24,1.44-.53.33-1.16.5-1.87.5s-1.31-.17-1.83-.52c-.52-.35-.86-.82-1.03-1.42h.18v5.25h-1.62ZM140.68,112.27c.7,0,1.27-.25,1.69-.74.42-.49.63-1.22.63-2.18s-.21-1.68-.63-2.17c-.42-.48-.98-.73-1.69-.73s-1.27.24-1.69.73c-.42.49-.63,1.21-.63,2.17s.21,1.69.63,2.18c.42.49.98.74,1.69.74Z"/>
          <path class="cls-7" d="M149.6,113.54c-.71,0-1.34-.17-1.87-.5-.53-.33-.95-.81-1.24-1.44-.29-.63-.44-1.38-.44-2.24s.15-1.62.44-2.24c.29-.62.71-1.1,1.24-1.43s1.16-.5,1.87-.5,1.32.18,1.84.53c.52.35.87.83,1.04,1.44h-.18l.16-1.82h1.57c-.03.33-.06.66-.09.98-.03.33-.04.64-.04.95v6.13h-1.62v-1.79h.18c-.17.6-.52,1.07-1.05,1.42s-1.13.52-1.82.52ZM150,112.27c.69,0,1.25-.25,1.67-.74.42-.49.63-1.22.63-2.18s-.21-1.68-.63-2.17c-.42-.48-.98-.73-1.67-.73s-1.27.24-1.69.73c-.42.49-.63,1.21-.63,2.17s.21,1.69.62,2.18c.42.49.98.74,1.7.74Z"/>
          <path class="cls-7" d="M156.23,113.39v-6.06c0-.33,0-.66-.02-1-.02-.34-.04-.67-.07-1h1.57l.18,2.08h-.26c.11-.5.29-.92.54-1.25.26-.33.57-.58.94-.74s.75-.24,1.16-.24c.17,0,.31,0,.43.02.12.02.23.04.35.07l-.02,1.44c-.18-.07-.34-.12-.47-.14-.13-.02-.3-.02-.49-.02-.47,0-.87.1-1.2.31-.33.21-.58.49-.75.84-.17.35-.26.73-.26,1.14v4.54h-1.63Z"/>
          <path class="cls-7" d="M165.91,113.54c-1.3,0-2.33-.37-3.07-1.1-.75-.74-1.12-1.75-1.12-3.06,0-.84.16-1.58.49-2.21.33-.63.78-1.12,1.36-1.46.58-.35,1.26-.52,2.02-.52s1.39.16,1.9.48c.51.32.9.77,1.17,1.35.27.58.4,1.27.4,2.06v.51h-6.08v-.93h4.98l-.27.21c0-.8-.18-1.42-.54-1.86s-.87-.66-1.54-.66c-.75,0-1.32.26-1.73.78-.41.52-.61,1.23-.61,2.14v.16c0,.95.23,1.66.7,2.14.46.48,1.12.72,1.98.72.47,0,.91-.07,1.32-.2.41-.13.8-.35,1.18-.66l.53,1.1c-.37.33-.83.58-1.36.76-.53.18-1.1.26-1.7.26Z"/>
          <path class="cls-7" d="M170.79,103.65v-1.68h1.87v1.68h-1.87ZM170.92,113.39v-8.06h1.62v8.06h-1.62Z"/>
          <path class="cls-7" d="M174.9,113.39v-11.78h1.62v11.78h-1.62Z"/>
        </g>
        <g>
          <path class="cls-7" d="M80.1,143.59c-1.15,0-2.13-.23-2.94-.7-.81-.47-1.43-1.14-1.86-2.01s-.65-1.9-.65-3.08.22-2.21.65-3.07c.43-.86,1.05-1.53,1.86-2,.81-.47,1.79-.7,2.94-.7.8,0,1.51.12,2.14.35.63.23,1.18.58,1.65,1.02l-.58,1.33c-.51-.44-1.01-.75-1.5-.94-.49-.19-1.05-.29-1.69-.29-1.22,0-2.14.37-2.78,1.12-.64.75-.96,1.81-.96,3.18s.32,2.44.96,3.19c.64.75,1.57,1.13,2.78,1.13.64,0,1.2-.1,1.69-.29.49-.19.98-.51,1.5-.96l.58,1.33c-.47.45-1.02.79-1.65,1.03-.63.24-1.34.36-2.14.36Z"/>
          <path class="cls-7" d="M85.84,143.45v-11.78h1.62v5.42h-.22c.23-.61.61-1.07,1.14-1.38s1.12-.47,1.81-.47c.96,0,1.67.26,2.14.79.47.53.7,1.33.7,2.39v5.02h-1.62v-4.93c0-.69-.14-1.2-.41-1.51s-.7-.47-1.29-.47c-.68,0-1.23.21-1.64.63-.41.42-.62.98-.62,1.67v4.61h-1.62Z"/>
          <path class="cls-7" d="M98.79,143.59c-.8,0-1.49-.17-2.08-.5-.59-.34-1.04-.82-1.36-1.44s-.48-1.37-.48-2.23.16-1.61.48-2.23.77-1.1,1.36-1.44c.59-.34,1.28-.5,2.08-.5s1.5.17,2.09.5,1.05.82,1.38,1.44c.33.62.49,1.37.49,2.23s-.16,1.61-.49,2.23c-.33.62-.78,1.1-1.38,1.44s-1.29.5-2.09.5ZM98.79,142.33c.7,0,1.26-.25,1.68-.74s.62-1.22.62-2.18-.21-1.68-.62-2.17c-.42-.48-.98-.73-1.68-.73s-1.25.24-1.66.73c-.42.49-.62,1.21-.62,2.17s.21,1.69.62,2.18.97.74,1.66.74Z"/>
          <path class="cls-7" d="M104.5,133.7v-1.68h1.87v1.68h-1.87ZM104.63,143.45v-8.06h1.62v8.06h-1.62Z"/>
          <path class="cls-7" d="M111.38,143.59c-.67,0-1.29-.09-1.86-.26-.57-.17-1.04-.41-1.41-.72l.5-1.1c.39.3.83.52,1.31.67.48.15.97.22,1.47.22.59,0,1.03-.1,1.33-.31s.45-.49.45-.86c0-.28-.09-.5-.28-.67s-.49-.3-.92-.38l-1.54-.3c-.68-.15-1.2-.41-1.55-.77-.35-.36-.53-.83-.53-1.39,0-.48.13-.91.39-1.28.26-.37.63-.67,1.12-.88.49-.21,1.05-.32,1.7-.32.6,0,1.15.09,1.66.26.51.17.94.42,1.28.74l-.51,1.07c-.33-.28-.7-.49-1.12-.65-.42-.15-.84-.23-1.26-.23-.6,0-1.04.11-1.33.34-.29.22-.43.52-.43.88,0,.28.09.5.26.68.18.18.46.31.84.41l1.54.3c.73.15,1.27.39,1.63.74.36.34.54.8.54,1.38,0,.5-.14.94-.42,1.31-.28.37-.66.66-1.15.85s-1.07.29-1.73.29Z"/>
          <path class="cls-7" d="M116.45,133.7v-1.68h1.87v1.68h-1.87ZM116.58,143.45v-8.06h1.62v8.06h-1.62Z"/>
          <path class="cls-7" d="M123.33,143.59c-.67,0-1.29-.09-1.86-.26-.57-.17-1.04-.41-1.41-.72l.5-1.1c.39.3.83.52,1.31.67.48.15.97.22,1.47.22.59,0,1.03-.1,1.33-.31s.45-.49.45-.86c0-.28-.09-.5-.28-.67s-.49-.3-.92-.38l-1.54-.3c-.68-.15-1.2-.41-1.55-.77-.35-.36-.53-.83-.53-1.39,0-.48.13-.91.39-1.28.26-.37.63-.67,1.12-.88.49-.21,1.05-.32,1.7-.32.6,0,1.15.09,1.66.26.51.17.94.42,1.28.74l-.51,1.07c-.33-.28-.7-.49-1.12-.65-.42-.15-.84-.23-1.26-.23-.6,0-1.04.11-1.33.34s-.43.52-.43.88c0,.28.09.5.26.68.18.18.46.31.84.41l1.54.3c.73.15,1.27.39,1.63.74.36.34.54.8.54,1.38,0,.5-.14.94-.42,1.31-.28.37-.66.66-1.15.85-.49.19-1.07.29-1.73.29Z"/>
          <path class="cls-7" d="M131.3,143.59c-.67,0-1.29-.09-1.86-.26-.57-.17-1.04-.41-1.41-.72l.5-1.1c.39.3.83.52,1.31.67.48.15.97.22,1.47.22.59,0,1.03-.1,1.33-.31s.45-.49.45-.86c0-.28-.09-.5-.28-.67s-.49-.3-.92-.38l-1.54-.3c-.68-.15-1.2-.41-1.55-.77-.35-.36-.53-.83-.53-1.39,0-.48.13-.91.39-1.28.26-.37.63-.67,1.12-.88.49-.21,1.05-.32,1.7-.32.6,0,1.15.09,1.66.26.51.17.94.42,1.28.74l-.51,1.07c-.33-.28-.7-.49-1.12-.65-.42-.15-.84-.23-1.26-.23-.6,0-1.04.11-1.33.34s-.43.52-.43.88c0,.28.09.5.26.68.18.18.46.31.84.41l1.54.3c.73.15,1.27.39,1.63.74.36.34.54.8.54,1.38,0,.5-.14.94-.42,1.31-.28.37-.66.66-1.15.85-.49.19-1.07.29-1.73.29Z"/>
          <path class="cls-7" d="M140.23,143.59c-1.3,0-2.33-.37-3.07-1.1-.75-.74-1.12-1.75-1.12-3.06,0-.84.16-1.58.49-2.21.33-.63.78-1.12,1.36-1.46.58-.35,1.26-.52,2.02-.52s1.39.16,1.9.48.9.77,1.17,1.35c.27.58.4,1.27.4,2.06v.51h-6.08v-.93h4.98l-.27.21c0-.8-.18-1.42-.54-1.86-.36-.44-.87-.66-1.54-.66-.75,0-1.32.26-1.73.78-.41.52-.61,1.23-.61,2.14v.16c0,.95.23,1.66.7,2.14.46.48,1.12.72,1.98.72.47,0,.91-.07,1.32-.2.41-.13.8-.35,1.18-.66l.53,1.1c-.37.33-.83.58-1.36.76-.53.18-1.1.26-1.7.26Z"/>
          <path class="cls-7" d="M144.77,143.45v-1.07l5.25-6.14.02.4h-5.26v-1.25h6.74v1.07l-5.3,6.19-.02-.43h5.49v1.23h-6.91Z"/>
          <path class="cls-7" d="M157.8,143.45v-11.78h1.62v11.78h-1.62Z"/>
          <path class="cls-7" d="M165.51,143.59c-1.3,0-2.33-.37-3.07-1.1-.75-.74-1.12-1.75-1.12-3.06,0-.84.16-1.58.49-2.21.33-.63.78-1.12,1.36-1.46.58-.35,1.26-.52,2.02-.52s1.39.16,1.9.48.9.77,1.17,1.35c.27.58.4,1.27.4,2.06v.51h-6.08v-.93h4.98l-.27.21c0-.8-.18-1.42-.54-1.86-.36-.44-.87-.66-1.54-.66-.75,0-1.32.26-1.73.78-.41.52-.61,1.23-.61,2.14v.16c0,.95.23,1.66.7,2.14.46.48,1.12.72,1.98.72.47,0,.91-.07,1.32-.2.41-.13.8-.35,1.18-.66l.53,1.1c-.37.33-.83.58-1.36.76-.53.18-1.1.26-1.7.26Z"/>
          <path class="cls-7" d="M174.79,143.45v-6.13c0-.31-.01-.63-.04-.95-.03-.33-.06-.65-.09-.98h1.57l.14,1.7h-.19c.22-.59.57-1.04,1.03-1.36s1.02-.48,1.67-.48,1.2.16,1.62.47c.42.31.71.8.87,1.45h-.26c.21-.59.58-1.05,1.09-1.4s1.1-.52,1.78-.52c.9,0,1.57.26,2.02.78s.67,1.33.67,2.43v4.99h-1.62v-4.91c0-.7-.12-1.21-.36-1.53-.24-.31-.63-.47-1.16-.47-.62,0-1.11.21-1.47.64-.36.43-.54,1-.54,1.73v4.54h-1.62v-4.91c0-.7-.12-1.21-.36-1.53s-.63-.47-1.16-.47c-.62,0-1.1.21-1.46.64-.35.43-.53,1-.53,1.73v4.54h-1.62Z"/>
          <path class="cls-7" d="M192.45,143.59c-.8,0-1.49-.17-2.08-.5-.59-.34-1.04-.82-1.36-1.44s-.48-1.37-.48-2.23.16-1.61.48-2.23.77-1.1,1.36-1.44c.59-.34,1.28-.5,2.08-.5s1.5.17,2.09.5,1.05.82,1.38,1.44c.33.62.49,1.37.49,2.23s-.16,1.61-.49,2.23c-.33.62-.78,1.1-1.38,1.44s-1.29.5-2.09.5ZM192.45,142.33c.7,0,1.26-.25,1.68-.74s.62-1.22.62-2.18-.21-1.68-.62-2.17c-.42-.48-.98-.73-1.68-.73s-1.25.24-1.66.73c-.42.49-.62,1.21-.62,2.17s.21,1.69.62,2.18.97.74,1.66.74Z"/>
          <path class="cls-7" d="M198.29,143.45v-6.13c0-.31-.01-.63-.04-.95-.03-.33-.06-.65-.09-.98h1.57l.14,1.7h-.19c.25-.6.62-1.05,1.14-1.37.51-.31,1.1-.47,1.78-.47.95,0,1.67.26,2.15.78.49.52.73,1.33.73,2.43v4.99h-1.62v-4.9c0-.71-.14-1.23-.42-1.54s-.71-.47-1.29-.47c-.68,0-1.23.21-1.63.63s-.61.99-.61,1.7v4.58h-1.62Z"/>
          <path class="cls-7" d="M210.91,143.59c-.87,0-1.54-.24-1.98-.71s-.67-1.19-.67-2.14v-4.11h-1.57v-1.25h1.57v-2.13l1.62-.43v2.56h2.24v1.25h-2.24v3.97c0,.6.11,1.02.32,1.28.21.26.52.38.93.38.2,0,.38-.02.54-.06.15-.04.3-.08.42-.14v1.31c-.16.06-.35.11-.56.15-.21.04-.42.06-.61.06Z"/>
          <path class="cls-7" d="M216.67,143.59c-.71,0-1.34-.17-1.87-.5s-.95-.81-1.24-1.44-.44-1.38-.44-2.24.15-1.62.44-2.24.71-1.1,1.24-1.43,1.16-.5,1.87-.5,1.32.18,1.84.53.87.83,1.04,1.44h-.18l.16-1.82h1.57c-.03.33-.06.66-.09.98-.03.33-.04.64-.04.95v6.13h-1.62v-1.79h.18c-.17.6-.52,1.07-1.05,1.42-.53.35-1.13.52-1.82.52ZM217.07,142.33c.69,0,1.25-.25,1.67-.74.42-.49.63-1.22.63-2.18s-.21-1.68-.63-2.17c-.42-.48-.98-.73-1.67-.73s-1.27.24-1.69.73c-.42.49-.63,1.21-.63,2.17s.21,1.69.62,2.18.98.74,1.7.74Z"/>
          <path class="cls-7" d="M223.33,143.45v-6.13c0-.31-.01-.63-.04-.95-.03-.33-.06-.65-.09-.98h1.57l.14,1.7h-.19c.25-.6.62-1.05,1.14-1.37.51-.31,1.1-.47,1.78-.47.95,0,1.67.26,2.15.78.49.52.73,1.33.73,2.43v4.99h-1.62v-4.9c0-.71-.14-1.23-.42-1.54s-.71-.47-1.29-.47c-.68,0-1.23.21-1.63.63s-.61.99-.61,1.7v4.58h-1.62Z"/>
          <path class="cls-7" d="M235.95,143.59c-.87,0-1.54-.24-1.98-.71s-.67-1.19-.67-2.14v-4.11h-1.57v-1.25h1.57v-2.13l1.62-.43v2.56h2.24v1.25h-2.24v3.97c0,.6.11,1.02.32,1.28.21.26.52.38.93.38.2,0,.38-.02.54-.06.15-.04.3-.08.42-.14v1.31c-.16.06-.35.11-.56.15-.21.04-.42.06-.61.06Z"/>
          <path class="cls-7" d="M246.63,143.59c-1.3,0-2.33-.37-3.07-1.1-.75-.74-1.12-1.75-1.12-3.06,0-.84.16-1.58.49-2.21.33-.63.78-1.12,1.36-1.46.58-.35,1.26-.52,2.02-.52s1.39.16,1.9.48c.51.32.9.77,1.17,1.35.27.58.4,1.27.4,2.06v.51h-6.08v-.93h4.98l-.27.21c0-.8-.18-1.42-.54-1.86-.36-.44-.87-.66-1.54-.66-.75,0-1.32.26-1.73.78-.41.52-.61,1.23-.61,2.14v.16c0,.95.23,1.66.7,2.14s1.12.72,1.98.72c.47,0,.91-.07,1.32-.2.41-.13.8-.35,1.18-.66l.53,1.1c-.37.33-.83.58-1.36.76-.53.18-1.1.26-1.7.26Z"/>
          <path class="cls-7" d="M254.75,143.59c-.87,0-1.54-.24-1.98-.71s-.67-1.19-.67-2.14v-4.11h-1.57v-1.25h1.57v-2.13l1.62-.43v2.56h2.24v1.25h-2.24v3.97c0,.6.11,1.02.32,1.28.21.26.52.38.93.38.2,0,.38-.02.54-.06.15-.04.3-.08.42-.14v1.31c-.16.06-.35.11-.56.15-.21.04-.42.06-.61.06Z"/>
          <path class="cls-7" d="M261.7,143.45v-11.78h1.62v11.78h-1.62Z"/>
          <path class="cls-7" d="M269.41,143.59c-1.3,0-2.33-.37-3.07-1.1s-1.12-1.75-1.12-3.06c0-.84.16-1.58.49-2.21.33-.63.78-1.12,1.36-1.46.58-.35,1.26-.52,2.02-.52s1.39.16,1.9.48.9.77,1.17,1.35c.27.58.4,1.27.4,2.06v.51h-6.08v-.93h4.98l-.27.21c0-.8-.18-1.42-.54-1.86-.36-.44-.87-.66-1.54-.66-.75,0-1.32.26-1.73.78-.41.52-.61,1.23-.61,2.14v.16c0,.95.23,1.66.7,2.14s1.12.72,1.98.72c.47,0,.91-.07,1.32-.2.41-.13.8-.35,1.18-.66l.53,1.1c-.37.33-.83.58-1.36.76-.53.18-1.1.26-1.7.26Z"/>
          <path class="cls-7" d="M74.88,164.45v-6.13c0-.31-.01-.63-.04-.95-.03-.33-.06-.65-.09-.98h1.57l.14,1.7h-.19c.22-.59.57-1.04,1.03-1.36s1.02-.48,1.67-.48,1.2.16,1.62.47c.42.31.71.8.87,1.45h-.26c.21-.59.58-1.05,1.09-1.4.51-.35,1.1-.52,1.78-.52.9,0,1.57.26,2.02.78.45.52.67,1.33.67,2.43v4.99h-1.62v-4.91c0-.7-.12-1.21-.36-1.53s-.63-.47-1.16-.47c-.62,0-1.11.21-1.47.64-.36.43-.54,1-.54,1.73v4.54h-1.62v-4.91c0-.7-.12-1.21-.36-1.53-.24-.31-.63-.47-1.16-.47-.62,0-1.1.21-1.46.64-.35.43-.53,1-.53,1.73v4.54h-1.62Z"/>
          <path class="cls-7" d="M92.55,164.59c-.8,0-1.49-.17-2.08-.5s-1.04-.82-1.36-1.44c-.32-.62-.48-1.37-.48-2.23s.16-1.61.48-2.23c.32-.62.77-1.1,1.36-1.44s1.28-.5,2.08-.5,1.5.17,2.09.5,1.05.82,1.38,1.44.49,1.37.49,2.23-.16,1.61-.49,2.23-.78,1.1-1.38,1.44-1.29.5-2.09.5ZM92.55,163.33c.7,0,1.26-.25,1.68-.74s.62-1.22.62-2.18-.21-1.68-.62-2.17c-.42-.48-.98-.73-1.68-.73s-1.25.24-1.66.73c-.42.49-.62,1.21-.62,2.17s.21,1.69.62,2.18.97.74,1.66.74Z"/>
          <path class="cls-7" d="M98,168.08l-.38-1.31c.5-.11.92-.23,1.26-.38s.62-.34.84-.58c.22-.24.42-.55.58-.92l.4-.94-.03.66-3.5-8.21h1.73l2.72,6.72h-.43l2.72-6.72h1.66l-3.7,8.64c-.23.53-.49.98-.75,1.34s-.55.66-.86.88c-.31.22-.65.4-1.02.53-.37.13-.78.23-1.22.3Z"/>
          <path class="cls-7" d="M110.41,164.59c-1.3,0-2.33-.37-3.07-1.1-.75-.74-1.12-1.75-1.12-3.06,0-.84.16-1.58.49-2.21.33-.63.78-1.12,1.36-1.46.58-.35,1.26-.52,2.02-.52s1.39.16,1.9.48.9.77,1.17,1.35c.27.58.4,1.27.4,2.06v.51h-6.08v-.93h4.98l-.27.21c0-.8-.18-1.42-.54-1.86-.36-.44-.87-.66-1.54-.66-.75,0-1.32.26-1.73.78-.41.52-.61,1.23-.61,2.14v.16c0,.95.23,1.66.7,2.14.46.48,1.12.72,1.98.72.47,0,.91-.07,1.32-.2.41-.13.8-.35,1.18-.66l.53,1.1c-.37.33-.83.58-1.36.76-.53.18-1.1.26-1.7.26Z"/>
          <path class="cls-7" d="M115.41,164.45v-6.13c0-.31-.01-.63-.04-.95-.03-.33-.06-.65-.09-.98h1.57l.14,1.7h-.19c.25-.6.62-1.05,1.14-1.37s1.1-.47,1.78-.47c.95,0,1.67.26,2.15.78s.73,1.33.73,2.43v4.99h-1.62v-4.9c0-.71-.14-1.23-.42-1.54-.28-.31-.71-.47-1.29-.47-.68,0-1.23.21-1.63.63-.41.42-.61.99-.61,1.7v4.58h-1.62Z"/>
          <path class="cls-7" d="M132.26,164.59c-.7,0-1.33-.17-1.86-.5-.54-.33-.96-.81-1.25-1.44-.29-.63-.44-1.38-.44-2.24s.15-1.62.44-2.24c.29-.62.71-1.1,1.25-1.43.54-.34,1.16-.5,1.86-.5s1.3.17,1.83.52c.53.35.88.82,1.05,1.42h-.19v-5.5h1.62v11.78h-1.6v-1.82h.19c-.18.61-.53,1.09-1.06,1.44-.52.35-1.14.53-1.84.53ZM132.66,163.33c.69,0,1.25-.25,1.68-.74s.64-1.22.64-2.18-.21-1.68-.64-2.17c-.43-.48-.99-.73-1.68-.73s-1.27.24-1.69.73c-.42.49-.63,1.21-.63,2.17s.21,1.69.63,2.18c.42.49.98.74,1.69.74Z"/>
          <path class="cls-7" d="M142.64,164.59c-1.3,0-2.33-.37-3.07-1.1-.75-.74-1.12-1.75-1.12-3.06,0-.84.16-1.58.49-2.21.33-.63.78-1.12,1.36-1.46.58-.35,1.26-.52,2.02-.52s1.39.16,1.9.48.9.77,1.17,1.35c.27.58.4,1.27.4,2.06v.51h-6.08v-.93h4.98l-.27.21c0-.8-.18-1.42-.54-1.86-.36-.44-.87-.66-1.54-.66-.75,0-1.32.26-1.73.78-.41.52-.61,1.23-.61,2.14v.16c0,.95.23,1.66.7,2.14.46.48,1.12.72,1.98.72.47,0,.91-.07,1.32-.2.41-.13.8-.35,1.18-.66l.53,1.1c-.37.33-.83.58-1.36.76-.53.18-1.1.26-1.7.26Z"/>
          <path class="cls-7" d="M151.92,167.9v-9.58c0-.31-.01-.63-.04-.95-.03-.33-.06-.65-.09-.98h1.57l.16,1.82h-.18c.17-.61.51-1.09,1.03-1.44.52-.35,1.13-.53,1.85-.53s1.34.17,1.87.5.95.81,1.24,1.43c.29.62.44,1.37.44,2.24s-.15,1.61-.44,2.24c-.29.63-.71,1.11-1.24,1.44s-1.16.5-1.87.5-1.31-.17-1.83-.52-.86-.82-1.03-1.42h.18v5.25h-1.62ZM155.83,163.33c.7,0,1.27-.25,1.69-.74.42-.49.63-1.22.63-2.18s-.21-1.68-.63-2.17c-.42-.48-.98-.73-1.69-.73s-1.27.24-1.69.73c-.42.49-.63,1.21-.63,2.17s.21,1.69.63,2.18c.42.49.98.74,1.69.74Z"/>
          <path class="cls-7" d="M164.76,164.59c-.71,0-1.34-.17-1.87-.5s-.95-.81-1.24-1.44-.44-1.38-.44-2.24.15-1.62.44-2.24.71-1.1,1.24-1.43,1.16-.5,1.87-.5,1.32.18,1.84.53.87.83,1.04,1.44h-.18l.16-1.82h1.57c-.03.33-.06.66-.09.98-.03.33-.04.64-.04.95v6.13h-1.62v-1.79h.18c-.17.6-.52,1.07-1.05,1.42-.53.35-1.13.52-1.82.52ZM165.16,163.33c.69,0,1.25-.25,1.67-.74.42-.49.63-1.22.63-2.18s-.21-1.68-.63-2.17c-.42-.48-.98-.73-1.67-.73s-1.27.24-1.69.73c-.42.49-.63,1.21-.63,2.17s.21,1.69.62,2.18.98.74,1.7.74Z"/>
          <path class="cls-7" d="M171.29,154.7v-1.68h1.87v1.68h-1.87ZM171.41,164.45v-8.06h1.62v8.06h-1.62Z"/>
          <path class="cls-7" d="M179.13,164.59c-1.3,0-2.33-.37-3.07-1.1-.75-.74-1.12-1.75-1.12-3.06,0-.84.16-1.58.49-2.21.33-.63.78-1.12,1.36-1.46.58-.35,1.26-.52,2.02-.52s1.39.16,1.9.48c.51.32.9.77,1.17,1.35.27.58.4,1.27.4,2.06v.51h-6.08v-.93h4.98l-.27.21c0-.8-.18-1.42-.54-1.86-.36-.44-.87-.66-1.54-.66-.75,0-1.32.26-1.73.78-.41.52-.61,1.23-.61,2.14v.16c0,.95.23,1.66.7,2.14s1.12.72,1.98.72c.47,0,.91-.07,1.32-.2.41-.13.8-.35,1.18-.66l.53,1.1c-.37.33-.83.58-1.36.76-.53.18-1.1.26-1.7.26Z"/>
          <path class="cls-7" d="M184.13,164.45v-6.13c0-.31-.01-.63-.04-.95-.03-.33-.06-.65-.09-.98h1.57l.14,1.7h-.19c.22-.59.57-1.04,1.03-1.36s1.02-.48,1.67-.48,1.2.16,1.62.47c.42.31.71.8.87,1.45h-.26c.21-.59.58-1.05,1.09-1.4s1.1-.52,1.78-.52c.9,0,1.57.26,2.02.78s.67,1.33.67,2.43v4.99h-1.62v-4.91c0-.7-.12-1.21-.36-1.53-.24-.31-.63-.47-1.16-.47-.62,0-1.11.21-1.47.64-.36.43-.54,1-.54,1.73v4.54h-1.62v-4.91c0-.7-.12-1.21-.36-1.53s-.63-.47-1.16-.47c-.62,0-1.1.21-1.46.64-.35.43-.53,1-.53,1.73v4.54h-1.62Z"/>
          <path class="cls-7" d="M202.07,164.59c-1.3,0-2.33-.37-3.07-1.1-.75-.74-1.12-1.75-1.12-3.06,0-.84.16-1.58.49-2.21.33-.63.78-1.12,1.36-1.46.58-.35,1.26-.52,2.02-.52s1.39.16,1.9.48.9.77,1.17,1.35c.27.58.4,1.27.4,2.06v.51h-6.08v-.93h4.98l-.27.21c0-.8-.18-1.42-.54-1.86-.36-.44-.87-.66-1.54-.66-.75,0-1.32.26-1.73.78-.41.52-.61,1.23-.61,2.14v.16c0,.95.23,1.66.7,2.14.46.48,1.12.72,1.98.72.47,0,.91-.07,1.32-.2.41-.13.8-.35,1.18-.66l.53,1.1c-.37.33-.83.58-1.36.76-.53.18-1.1.26-1.7.26Z"/>
          <path class="cls-7" d="M207.08,164.45v-6.13c0-.31-.01-.63-.04-.95-.03-.33-.06-.65-.09-.98h1.57l.14,1.7h-.19c.25-.6.62-1.05,1.14-1.37s1.1-.47,1.78-.47c.95,0,1.67.26,2.15.78s.73,1.33.73,2.43v4.99h-1.62v-4.9c0-.71-.14-1.23-.42-1.54-.28-.31-.71-.47-1.29-.47-.68,0-1.23.21-1.63.63-.41.42-.61.99-.61,1.7v4.58h-1.62Z"/>
          <path class="cls-7" d="M219.7,164.59c-.88,0-1.54-.24-1.98-.71-.45-.47-.67-1.19-.67-2.14v-4.11h-1.57v-1.25h1.57v-2.13l1.62-.43v2.56h2.24v1.25h-2.24v3.97c0,.6.11,1.02.32,1.28.21.26.52.38.93.38.2,0,.38-.02.54-.06.15-.04.3-.08.42-.14v1.31c-.16.06-.35.11-.56.15-.21.04-.42.06-.61.06Z"/>
        </g>
        <g>
          <path class="cls-7" d="M80.1,203.23c-1.15,0-2.13-.23-2.94-.7-.81-.47-1.43-1.14-1.86-2.01s-.65-1.9-.65-3.08.22-2.21.65-3.07c.43-.86,1.05-1.53,1.86-2,.81-.47,1.79-.7,2.94-.7.8,0,1.51.12,2.14.35.63.23,1.18.58,1.65,1.02l-.58,1.33c-.51-.44-1.01-.75-1.5-.94-.49-.19-1.05-.29-1.69-.29-1.22,0-2.14.37-2.78,1.12-.64.75-.96,1.81-.96,3.18s.32,2.44.96,3.19c.64.75,1.57,1.13,2.78,1.13.64,0,1.2-.1,1.69-.29.49-.19.98-.51,1.5-.96l.58,1.33c-.47.45-1.02.79-1.65,1.03-.63.24-1.34.36-2.14.36Z"/>
          <path class="cls-7" d="M88.74,203.23c-.8,0-1.49-.17-2.08-.5s-1.04-.82-1.36-1.44c-.32-.62-.48-1.37-.48-2.23s.16-1.61.48-2.23c.32-.62.77-1.1,1.36-1.44s1.28-.5,2.08-.5,1.5.17,2.09.5,1.05.82,1.38,1.44.49,1.37.49,2.23-.16,1.61-.49,2.23-.78,1.1-1.38,1.44-1.29.5-2.09.5ZM88.74,201.96c.7,0,1.26-.25,1.68-.74s.62-1.22.62-2.18-.21-1.68-.62-2.17c-.42-.48-.98-.73-1.68-.73s-1.25.24-1.66.73c-.42.49-.62,1.21-.62,2.17s.21,1.69.62,2.18.97.74,1.66.74Z"/>
          <path class="cls-7" d="M94.58,203.08v-6.13c0-.31-.01-.63-.04-.95-.03-.33-.06-.65-.09-.98h1.57l.14,1.7h-.19c.25-.6.62-1.05,1.14-1.37s1.1-.47,1.78-.47c.95,0,1.67.26,2.15.78s.73,1.33.73,2.43v4.99h-1.62v-4.9c0-.71-.14-1.23-.42-1.54-.28-.31-.71-.47-1.29-.47-.68,0-1.23.21-1.63.63-.41.42-.61.99-.61,1.7v4.58h-1.62Z"/>
          <path class="cls-7" d="M104.55,203.08v-6.82h-1.57v-1.25h2.02l-.45.42v-1.28c0-.95.24-1.67.71-2.17.47-.5,1.17-.74,2.07-.74.21,0,.44.02.69.05s.45.09.62.16v1.31c-.13-.05-.29-.1-.48-.14-.19-.04-.38-.06-.56-.06-.47,0-.83.14-1.08.41s-.38.7-.38,1.27v1.09l-.24-.32h5.36v8.06h-1.62v-6.82h-3.49v6.82h-1.62ZM109.52,193.34v-1.68h1.87v1.68h-1.87Z"/>
          <path class="cls-7" d="M113.6,203.08v-6.06c0-.33,0-.66-.02-1-.02-.34-.04-.67-.07-1h1.57l.18,2.08h-.26c.11-.5.29-.92.54-1.25s.57-.58.94-.74c.37-.16.75-.24,1.16-.24.17,0,.31,0,.43.02.12.02.23.04.35.07l-.02,1.44c-.18-.07-.34-.12-.47-.14-.13-.02-.3-.02-.49-.02-.47,0-.87.1-1.2.31-.33.21-.58.49-.75.84-.17.35-.26.73-.26,1.14v4.54h-1.63Z"/>
          <path class="cls-7" d="M119.67,203.08v-6.13c0-.31-.01-.63-.04-.95-.03-.33-.06-.65-.09-.98h1.57l.14,1.7h-.19c.22-.59.57-1.04,1.03-1.36s1.02-.48,1.67-.48,1.2.16,1.62.47c.42.31.71.8.87,1.45h-.26c.21-.59.58-1.05,1.09-1.4.51-.35,1.1-.52,1.78-.52.9,0,1.57.26,2.02.78.45.52.67,1.33.67,2.43v4.99h-1.62v-4.91c0-.7-.12-1.21-.36-1.53s-.63-.47-1.16-.47c-.62,0-1.11.21-1.47.64-.36.43-.54,1-.54,1.73v4.54h-1.62v-4.91c0-.7-.12-1.21-.36-1.53-.24-.31-.63-.47-1.16-.47-.62,0-1.1.21-1.46.64-.35.43-.53,1-.53,1.73v4.54h-1.62Z"/>
          <path class="cls-7" d="M137.61,203.23c-1.3,0-2.33-.37-3.07-1.1-.75-.74-1.12-1.75-1.12-3.06,0-.84.16-1.58.49-2.21.33-.63.78-1.12,1.36-1.46.58-.35,1.26-.52,2.02-.52s1.39.16,1.9.48c.51.32.9.77,1.17,1.35.27.58.4,1.27.4,2.06v.51h-6.08v-.93h4.98l-.27.21c0-.8-.18-1.42-.54-1.86-.36-.44-.87-.66-1.54-.66-.75,0-1.32.26-1.73.78-.41.52-.61,1.23-.61,2.14v.16c0,.95.23,1.66.7,2.14s1.12.72,1.98.72c.47,0,.91-.07,1.32-.2.41-.13.8-.35,1.18-.66l.53,1.1c-.37.33-.83.58-1.36.76-.53.18-1.1.26-1.7.26Z"/>
          <path class="cls-7" d="M142.15,203.08v-1.07l5.25-6.14.02.4h-5.26v-1.25h6.74v1.07l-5.3,6.19-.02-.43h5.49v1.23h-6.91Z"/>
          <path class="cls-7" d="M157.54,203.08l-3.46-8.06h1.73l2.72,6.74h-.46l2.77-6.74h1.65l-3.47,8.06h-1.47Z"/>
          <path class="cls-7" d="M167.08,203.23c-.8,0-1.49-.17-2.08-.5-.59-.34-1.04-.82-1.36-1.44s-.48-1.37-.48-2.23.16-1.61.48-2.23.77-1.1,1.36-1.44c.59-.34,1.28-.5,2.08-.5s1.5.17,2.09.5,1.05.82,1.38,1.44c.33.62.49,1.37.49,2.23s-.16,1.61-.49,2.23c-.33.62-.78,1.1-1.38,1.44s-1.29.5-2.09.5ZM167.08,201.96c.7,0,1.26-.25,1.68-.74s.62-1.22.62-2.18-.21-1.68-.62-2.17c-.42-.48-.98-.73-1.68-.73s-1.25.24-1.66.73c-.42.49-.62,1.21-.62,2.17s.21,1.69.62,2.18.97.74,1.66.74Z"/>
          <path class="cls-7" d="M175.97,203.23c-.87,0-1.54-.24-1.98-.71s-.67-1.19-.67-2.14v-4.11h-1.57v-1.25h1.57v-2.13l1.62-.43v2.56h2.24v1.25h-2.24v3.97c0,.6.11,1.02.32,1.28.21.26.52.38.93.38.2,0,.38-.02.54-.06.15-.04.3-.08.42-.14v1.31c-.16.06-.35.11-.56.15-.21.04-.42.06-.61.06Z"/>
          <path class="cls-7" d="M178.61,203.08v-6.06c0-.33,0-.66-.02-1-.02-.34-.04-.67-.07-1h1.57l.18,2.08h-.26c.11-.5.29-.92.54-1.25s.57-.58.94-.74c.37-.16.75-.24,1.16-.24.17,0,.31,0,.43.02.12.02.23.04.35.07l-.02,1.44c-.18-.07-.34-.12-.47-.14-.13-.02-.3-.02-.49-.02-.47,0-.87.1-1.2.31-.33.21-.58.49-.75.84-.17.35-.26.73-.26,1.14v4.54h-1.63Z"/>
          <path class="cls-7" d="M188.29,203.23c-1.3,0-2.33-.37-3.07-1.1-.75-.74-1.12-1.75-1.12-3.06,0-.84.16-1.58.49-2.21.33-.63.78-1.12,1.36-1.46.58-.35,1.26-.52,2.02-.52s1.39.16,1.9.48c.51.32.9.77,1.17,1.35.27.58.4,1.27.4,2.06v.51h-6.08v-.93h4.98l-.27.21c0-.8-.18-1.42-.54-1.86-.36-.44-.87-.66-1.54-.66-.75,0-1.32.26-1.73.78-.41.52-.61,1.23-.61,2.14v.16c0,.95.23,1.66.7,2.14s1.12.72,1.98.72c.47,0,.91-.07,1.32-.2.41-.13.8-.35,1.18-.66l.53,1.1c-.37.33-.83.58-1.36.76-.53.18-1.1.26-1.7.26Z"/>
          <path class="cls-7" d="M197.57,206.54v-9.58c0-.31-.01-.63-.04-.95-.03-.33-.06-.65-.09-.98h1.57l.16,1.82h-.18c.17-.61.51-1.09,1.03-1.44s1.13-.53,1.85-.53,1.34.17,1.87.5.95.81,1.24,1.43.44,1.37.44,2.24-.15,1.61-.44,2.24-.71,1.11-1.24,1.44-1.16.5-1.87.5-1.31-.17-1.83-.52c-.52-.35-.86-.82-1.03-1.42h.18v5.25h-1.62ZM201.48,201.96c.7,0,1.27-.25,1.69-.74.42-.49.63-1.22.63-2.18s-.21-1.68-.63-2.17c-.42-.48-.98-.73-1.69-.73s-1.27.24-1.69.73c-.42.49-.63,1.21-.63,2.17s.21,1.69.63,2.18c.42.49.98.74,1.69.74Z"/>
          <path class="cls-7" d="M210.41,203.23c-.71,0-1.34-.17-1.87-.5s-.95-.81-1.24-1.44c-.29-.63-.44-1.38-.44-2.24s.15-1.62.44-2.24c.29-.62.71-1.1,1.24-1.43s1.16-.5,1.87-.5,1.32.18,1.84.53.87.83,1.04,1.44h-.18l.16-1.82h1.57c-.03.33-.06.66-.09.98-.03.33-.04.64-.04.95v6.13h-1.62v-1.79h.18c-.17.6-.52,1.07-1.05,1.42s-1.13.52-1.82.52ZM210.81,201.96c.69,0,1.25-.25,1.67-.74.42-.49.63-1.22.63-2.18s-.21-1.68-.63-2.17c-.42-.48-.98-.73-1.67-.73s-1.27.24-1.69.73c-.42.49-.63,1.21-.63,2.17s.21,1.69.62,2.18.98.74,1.7.74Z"/>
          <path class="cls-7" d="M216.93,193.34v-1.68h1.87v1.68h-1.87ZM217.06,203.08v-8.06h1.62v8.06h-1.62Z"/>
          <path class="cls-7" d="M224.77,203.23c-1.3,0-2.33-.37-3.07-1.1-.75-.74-1.12-1.75-1.12-3.06,0-.84.16-1.58.49-2.21.33-.63.78-1.12,1.36-1.46.58-.35,1.26-.52,2.02-.52s1.39.16,1.9.48c.51.32.9.77,1.17,1.35.27.58.4,1.27.4,2.06v.51h-6.08v-.93h4.98l-.27.21c0-.8-.18-1.42-.54-1.86-.36-.44-.87-.66-1.54-.66-.75,0-1.32.26-1.73.78-.41.52-.61,1.23-.61,2.14v.16c0,.95.23,1.66.7,2.14s1.12.72,1.98.72c.47,0,.91-.07,1.32-.2.41-.13.8-.35,1.18-.66l.53,1.1c-.37.33-.83.58-1.36.76-.53.18-1.1.26-1.7.26Z"/>
          <path class="cls-7" d="M229.78,203.08v-6.13c0-.31-.01-.63-.04-.95-.03-.33-.06-.65-.09-.98h1.57l.14,1.7h-.19c.22-.59.57-1.04,1.03-1.36s1.02-.48,1.67-.48,1.2.16,1.62.47c.42.31.71.8.87,1.45h-.26c.21-.59.58-1.05,1.09-1.4.51-.35,1.1-.52,1.78-.52.9,0,1.57.26,2.02.78.45.52.67,1.33.67,2.43v4.99h-1.62v-4.91c0-.7-.12-1.21-.36-1.53s-.63-.47-1.16-.47c-.62,0-1.11.21-1.47.64-.36.43-.54,1-.54,1.73v4.54h-1.62v-4.91c0-.7-.12-1.21-.36-1.53-.24-.31-.63-.47-1.16-.47-.62,0-1.1.21-1.46.64-.35.43-.53,1-.53,1.73v4.54h-1.62Z"/>
          <path class="cls-7" d="M247.72,203.23c-1.3,0-2.33-.37-3.07-1.1-.75-.74-1.12-1.75-1.12-3.06,0-.84.16-1.58.49-2.21.33-.63.78-1.12,1.36-1.46.58-.35,1.26-.52,2.02-.52s1.39.16,1.9.48c.51.32.9.77,1.17,1.35.27.58.4,1.27.4,2.06v.51h-6.08v-.93h4.98l-.27.21c0-.8-.18-1.42-.54-1.86-.36-.44-.87-.66-1.54-.66-.75,0-1.32.26-1.73.78-.41.52-.61,1.23-.61,2.14v.16c0,.95.23,1.66.7,2.14s1.12.72,1.98.72c.47,0,.91-.07,1.32-.2.41-.13.8-.35,1.18-.66l.53,1.1c-.37.33-.83.58-1.36.76-.53.18-1.1.26-1.7.26Z"/>
          <path class="cls-7" d="M252.72,203.08v-6.13c0-.31-.01-.63-.04-.95-.03-.33-.06-.65-.09-.98h1.57l.14,1.7h-.19c.25-.6.62-1.05,1.14-1.37s1.1-.47,1.78-.47c.95,0,1.67.26,2.15.78s.73,1.33.73,2.43v4.99h-1.62v-4.9c0-.71-.14-1.23-.42-1.54-.28-.31-.71-.47-1.29-.47-.68,0-1.23.21-1.63.63-.41.42-.61.99-.61,1.7v4.58h-1.62Z"/>
          <path class="cls-7" d="M265.35,203.23c-.87,0-1.54-.24-1.98-.71s-.67-1.19-.67-2.14v-4.11h-1.57v-1.25h1.57v-2.13l1.62-.43v2.56h2.24v1.25h-2.24v3.97c0,.6.11,1.02.32,1.28.21.26.52.38.93.38.2,0,.38-.02.54-.06.15-.04.3-.08.42-.14v1.31c-.16.06-.35.11-.56.15-.21.04-.42.06-.61.06Z"/>
        </g>
      </g>
      <g id="Headings_EN_copy" data-name="Headings EN copy">
        <g>
          <path class="cls-7" d="M22.51,46.63v-23.97h11.15c2.7,0,4.75.66,6.15,1.97,1.41,1.32,2.11,3.11,2.11,5.37s-.7,4-2.11,5.34c-1.41,1.34-3.46,2.01-6.15,2.01h-5.85v9.28h-5.3ZM27.82,33.2h5.24c1.27,0,2.21-.28,2.82-.83.61-.56.92-1.35.92-2.4s-.31-1.81-.92-2.36c-.61-.56-1.55-.83-2.82-.83h-5.24v6.43Z"/>
          <path class="cls-7" d="M51.07,46.97c-1.5,0-2.82-.35-3.96-1.05-1.14-.7-2.03-1.73-2.65-3.09-.62-1.36-.93-2.97-.93-4.83s.32-3.46.95-4.79c.63-1.34,1.52-2.36,2.65-3.08,1.13-.71,2.45-1.07,3.94-1.07,1.38,0,2.62.34,3.72,1.02s1.83,1.58,2.19,2.69h-.41l.41-3.33h4.93c-.09.73-.16,1.46-.2,2.21-.05.75-.07,1.5-.07,2.24v12.75h-5.1l-.03-3.23h.41c-.36,1.09-1.09,1.96-2.18,2.6-1.09.65-2.31.97-3.67.97ZM52.64,43.13c1.18,0,2.13-.41,2.86-1.24.73-.83,1.09-2.12,1.09-3.89s-.36-3.03-1.09-3.86c-.73-.83-1.68-1.24-2.86-1.24s-2.13.41-2.86,1.24c-.73.83-1.09,2.11-1.09,3.86s.36,3.07,1.07,3.89c.71.83,1.67,1.24,2.87,1.24Z"/>
          <path class="cls-7" d="M65.56,54.35l-1.19-4.01c1.06-.23,1.96-.47,2.69-.73.73-.26,1.33-.61,1.8-1.05.48-.44.87-1.03,1.19-1.75l.82-1.97-.1,1.97-7.51-17.37h5.44l4.9,12.44h-1.05l5-12.44h5.13l-7.79,17.88c-.59,1.31-1.21,2.39-1.85,3.23-.65.84-1.35,1.51-2.11,2.01-.76.5-1.58.88-2.47,1.16-.88.27-1.85.49-2.89.65Z"/>
          <path class="cls-7" d="M92.66,46.97c-2.99,0-5.33-.8-7-2.4-1.68-1.6-2.52-3.79-2.52-6.58,0-1.77.36-3.32,1.07-4.66.71-1.34,1.71-2.38,2.99-3.14,1.28-.76,2.78-1.14,4.5-1.14s3.15.36,4.27,1.09c1.12.73,1.98,1.74,2.57,3.04.59,1.3.88,2.82.88,4.54v1.19h-12.07v-2.52h8.36l-.58.48c0-1.45-.29-2.54-.88-3.28-.59-.74-1.43-1.1-2.52-1.1-1.22,0-2.16.44-2.8,1.33-.65.88-.97,2.15-.97,3.81v.51c0,1.7.42,2.96,1.26,3.77.84.82,2.03,1.22,3.57,1.22.95,0,1.84-.12,2.67-.36.83-.24,1.62-.62,2.36-1.14l1.39,3.4c-.82.61-1.79,1.09-2.92,1.43s-2.35.51-3.64.51Z"/>
          <path class="cls-7" d="M101.84,46.63v-3.33l10.27-11.25.03,1.16h-10.3v-3.77h14.86v3.3l-10.37,11.42-.03-1.33h10.78v3.81h-15.23Z"/>
          <path class="cls-7" d="M129.75,26.57v-4.79h5.54v4.79h-5.54ZM129.92,46.63v-17.2h5.13v17.2h-5.13Z"/>
          <path class="cls-7" d="M147.56,46.97c-1.81,0-3.42-.36-4.81-1.07-1.39-.71-2.46-1.75-3.21-3.11s-1.12-2.97-1.12-4.83.38-3.46,1.14-4.79c.76-1.34,1.82-2.36,3.2-3.06,1.37-.7,2.98-1.05,4.81-1.05,1.16,0,2.29.17,3.4.49,1.11.33,1.99.81,2.65,1.45l-1.46,3.54c-.57-.5-1.22-.88-1.96-1.16s-1.46-.41-2.16-.41c-1.38,0-2.46.42-3.23,1.28-.77.85-1.16,2.09-1.16,3.72s.39,2.89,1.16,3.77,1.85,1.33,3.23,1.33c.7,0,1.42-.14,2.14-.41.72-.27,1.38-.66,1.97-1.16l1.46,3.54c-.68.61-1.58,1.09-2.69,1.43-1.11.34-2.23.51-3.37.51Z"/>
          <path class="cls-7" d="M156.37,26.57v-4.79h5.54v4.79h-5.54ZM156.54,46.63v-17.2h5.13v17.2h-5.13Z"/>
        </g>
      </g>
    </g>
    <g id="BrandMsg_FR" data-name="BrandMsg FR">
      <g>
        <g>
          <path class="cls-7" d="M323.01,229.5v-7.75h3.17c.81,0,1.44.19,1.89.58.45.39.67.92.67,1.61,0,.45-.1.84-.3,1.16-.2.32-.48.56-.85.73-.36.17-.79.25-1.27.25l.2-.14h.22c.3,0,.57.07.81.22.24.15.43.39.57.74l1.1,2.61h-1l-1.06-2.56c-.12-.33-.31-.54-.56-.64-.25-.1-.56-.15-.94-.15h-1.74v3.35h-.91ZM323.92,225.43h2.12c.59,0,1.03-.13,1.34-.38.3-.25.46-.62.46-1.09s-.15-.84-.46-1.09c-.3-.25-.75-.37-1.34-.37h-2.12v2.94Z"/>
          <path class="cls-7" d="M332.85,229.6c-.87,0-1.55-.25-2.05-.75-.5-.5-.75-1.2-.75-2.1,0-.58.11-1.08.33-1.51.22-.43.53-.76.92-1,.4-.24.85-.36,1.36-.36s.93.11,1.28.32c.34.21.61.52.79.91.18.39.28.86.28,1.39v.33h-4.28v-.56h3.7l-.19.14c0-.59-.13-1.05-.4-1.38-.26-.33-.66-.5-1.18-.5-.55,0-.98.19-1.29.58-.31.38-.46.9-.46,1.56v.1c0,.69.17,1.21.51,1.57.34.36.82.53,1.44.53.33,0,.64-.05.93-.15.29-.1.57-.26.83-.49l.31.63c-.24.23-.55.42-.92.54-.37.13-.76.19-1.17.19Z"/>
          <path class="cls-7" d="M336.38,229.5v-4.25c0-.21,0-.42-.03-.63s-.04-.43-.06-.64h.86l.11,1.21h-.13c.16-.43.42-.75.78-.97.36-.22.77-.34,1.24-.34.65,0,1.15.17,1.48.52.33.35.5.9.5,1.64v3.45h-.89v-3.4c0-.52-.11-.9-.31-1.14s-.53-.36-.97-.36c-.51,0-.92.16-1.22.47s-.45.74-.45,1.26v3.16h-.89Z"/>
          <path class="cls-7" d="M344.92,229.6c-.48,0-.91-.12-1.28-.35-.37-.23-.65-.56-.85-.98-.2-.43-.3-.94-.3-1.53s.1-1.11.3-1.54c.2-.43.49-.75.85-.98.37-.23.79-.34,1.28-.34s.93.12,1.29.37c.36.25.61.59.73,1.01h-.13v-3.86h.89v8.1h-.88v-1.32h.12c-.12.44-.36.79-.73,1.04-.37.25-.8.38-1.3.38ZM345.11,228.88c.52,0,.94-.18,1.25-.54.32-.36.47-.89.47-1.59s-.16-1.24-.47-1.6c-.32-.36-.73-.54-1.25-.54s-.94.18-1.25.54c-.31.36-.47.9-.47,1.6s.16,1.23.47,1.59c.31.36.73.54,1.25.54Z"/>
          <path class="cls-7" d="M351.38,229.6c-.65,0-1.15-.18-1.48-.54-.33-.36-.5-.91-.5-1.65v-3.43h.89v3.41c0,.51.1.88.31,1.12s.52.36.96.36c.48,0,.87-.16,1.17-.47s.44-.74.44-1.27v-3.15h.89v5.52h-.87v-1.24h.14c-.15.43-.4.76-.74.99s-.74.35-1.2.35Z"/>
          <path class="cls-7" d="M358.65,231.88v-6.62c0-.21,0-.42-.03-.63s-.04-.43-.06-.64h.86l.12,1.31h-.13c.12-.43.36-.78.71-1.03.36-.25.79-.38,1.29-.38s.93.11,1.29.34c.36.23.65.55.85.98s.31.94.31,1.54-.1,1.1-.3,1.53c-.2.43-.49.75-.85.98-.37.23-.8.35-1.3.35s-.92-.12-1.28-.37-.6-.59-.71-1.02h.12v3.67h-.89ZM361.23,228.88c.53,0,.95-.18,1.26-.54.31-.36.47-.89.47-1.59s-.16-1.24-.47-1.6c-.31-.36-.73-.54-1.26-.54s-.94.18-1.25.54c-.31.36-.47.9-.47,1.6s.16,1.23.47,1.59c.31.36.73.54,1.25.54Z"/>
          <path class="cls-7" d="M367.53,229.6c-.54,0-1-.12-1.39-.35-.39-.23-.7-.56-.91-.99-.21-.43-.32-.94-.32-1.52s.11-1.1.32-1.53c.21-.43.51-.75.91-.98.39-.23.85-.35,1.38-.35s1,.12,1.39.35c.39.23.7.56.91.98.22.43.33.94.33,1.53s-.11,1.09-.33,1.52c-.22.43-.52.76-.91.99-.39.23-.85.35-1.38.35ZM367.53,228.88c.52,0,.93-.18,1.24-.54.31-.36.46-.89.46-1.59s-.16-1.24-.47-1.6c-.31-.36-.73-.54-1.25-.54s-.93.18-1.24.54c-.31.36-.46.9-.46,1.6s.15,1.23.46,1.59c.31.36.73.54,1.25.54Z"/>
          <path class="cls-7" d="M373.37,229.6c-.44,0-.85-.06-1.23-.18-.38-.12-.7-.29-.95-.51l.31-.63c.27.21.57.37.89.47.32.1.65.15,1,.15.44,0,.77-.08,1-.24s.33-.38.33-.65c0-.21-.07-.38-.21-.51-.14-.13-.38-.23-.7-.3l-1.02-.21c-.47-.1-.82-.28-1.06-.52-.24-.25-.35-.56-.35-.94,0-.32.08-.61.25-.85.17-.25.41-.44.74-.58.32-.14.7-.21,1.13-.21.4,0,.78.06,1.12.18.34.12.63.3.85.52l-.32.62c-.22-.21-.47-.37-.75-.48-.28-.11-.57-.16-.87-.16-.43,0-.76.09-.97.26-.22.17-.33.4-.33.68,0,.21.07.39.2.52s.35.24.63.3l1.02.21c.5.11.87.28,1.12.51.25.23.37.54.37.93,0,.33-.09.62-.28.86s-.44.43-.76.57c-.33.13-.71.2-1.15.2Z"/>
          <path class="cls-7" d="M378.82,229.6c-.44,0-.85-.06-1.23-.18-.38-.12-.7-.29-.95-.51l.31-.63c.27.21.57.37.89.47.32.1.65.15,1,.15.44,0,.77-.08,1-.24s.33-.38.33-.65c0-.21-.07-.38-.21-.51-.14-.13-.38-.23-.7-.3l-1.02-.21c-.47-.1-.82-.28-1.06-.52-.24-.25-.35-.56-.35-.94,0-.32.08-.61.25-.85.17-.25.41-.44.74-.58.32-.14.7-.21,1.13-.21.4,0,.78.06,1.12.18.34.12.63.3.85.52l-.32.62c-.22-.21-.47-.37-.75-.48-.28-.11-.57-.16-.87-.16-.43,0-.76.09-.97.26-.22.17-.33.4-.33.68,0,.21.07.39.2.52s.35.24.63.3l1.02.21c.5.11.87.28,1.12.51.25.23.37.54.37.93,0,.33-.09.62-.28.86s-.44.43-.76.57c-.33.13-.71.2-1.15.2Z"/>
          <path class="cls-7" d="M382.33,222.73v-1h1.1v1h-1.1ZM382.44,229.5v-5.52h.89v5.52h-.89Z"/>
          <path class="cls-7" d="M387.83,229.6c-.5,0-.93-.13-1.29-.38-.36-.25-.6-.6-.73-1.04h.12v1.32h-.88v-8.1h.89v3.86h-.13c.12-.43.37-.76.73-1.01.36-.25.79-.37,1.29-.37s.93.12,1.29.35.65.56.85.98c.2.43.3.94.3,1.53s-.1,1.1-.31,1.53-.49.75-.85.98-.79.35-1.28.35ZM387.64,228.88c.52,0,.94-.18,1.25-.54s.47-.89.47-1.6-.16-1.24-.47-1.6c-.32-.36-.73-.54-1.25-.54s-.94.18-1.25.54c-.31.36-.47.9-.47,1.6s.16,1.23.47,1.59c.31.36.73.54,1.25.54Z"/>
          <path class="cls-7" d="M391.66,229.5v-8.1h.89v8.1h-.89Z"/>
          <path class="cls-7" d="M396.73,229.6c-.87,0-1.55-.25-2.05-.75-.5-.5-.75-1.2-.75-2.1,0-.58.11-1.08.33-1.51.22-.43.53-.76.92-1,.4-.24.85-.36,1.36-.36s.93.11,1.28.32c.34.21.61.52.79.91.18.39.28.86.28,1.39v.33h-4.28v-.56h3.7l-.19.14c0-.59-.13-1.05-.4-1.38-.26-.33-.66-.5-1.18-.5-.55,0-.98.19-1.29.58-.31.38-.46.9-.46,1.56v.1c0,.69.17,1.21.51,1.57.34.36.82.53,1.44.53.33,0,.64-.05.93-.15.29-.1.57-.26.83-.49l.31.63c-.24.23-.55.42-.92.54-.37.13-.76.19-1.17.19Z"/>
          <path class="cls-7" d="M405.56,231.96c-.48,0-.92-.06-1.32-.18s-.77-.3-1.09-.54l.26-.67c.23.16.45.29.67.39.22.1.45.17.68.21.24.05.48.07.75.07.54,0,.95-.14,1.23-.43.28-.29.42-.69.42-1.22v-1.62h.11c-.12.43-.36.78-.73,1.03-.37.25-.8.38-1.29.38s-.94-.11-1.31-.34-.66-.54-.86-.96c-.2-.41-.3-.9-.3-1.47s.1-1.04.3-1.45c.2-.41.49-.73.86-.95.37-.22.81-.34,1.31-.34s.93.12,1.29.37c.36.25.6.59.72,1.03l-.11-.11.1-1.2h.87c-.03.21-.05.43-.07.64s-.02.43-.02.63v4.21c0,.82-.21,1.44-.63,1.86-.42.42-1.04.63-1.85.63ZM405.43,228.66c.54,0,.96-.18,1.27-.53.31-.36.46-.86.46-1.5s-.15-1.14-.46-1.5c-.31-.35-.73-.53-1.27-.53s-.95.18-1.26.53-.47.85-.47,1.5.16,1.15.47,1.5c.32.36.74.53,1.26.53Z"/>
          <path class="cls-7" d="M409.74,229.5v-4.19c0-.22,0-.44-.02-.67-.01-.23-.03-.45-.05-.66h.86l.11,1.34h-.15c.07-.32.2-.59.38-.8.18-.21.4-.37.65-.48.25-.11.51-.16.78-.16.11,0,.21,0,.29.01.08,0,.16.03.24.05v.79c-.12-.04-.22-.06-.31-.07-.09-.01-.2-.02-.31-.02-.32,0-.6.08-.84.23-.24.15-.42.35-.54.59-.12.24-.18.5-.18.77v3.26h-.9Z"/>
          <path class="cls-7" d="M415.86,229.6c-.49,0-.92-.12-1.29-.35-.37-.23-.65-.56-.85-.98-.2-.43-.3-.94-.3-1.53s.1-1.11.3-1.54c.2-.43.49-.75.85-.98.37-.23.79-.34,1.29-.34s.93.13,1.29.38c.36.25.6.6.72,1.03h-.13l.12-1.31h.86c-.02.21-.04.43-.06.64s-.03.43-.03.63v4.25h-.89v-1.3h.12c-.12.43-.36.77-.73,1.02-.37.25-.79.37-1.28.37ZM416.04,228.88c.53,0,.95-.18,1.25-.54.31-.36.46-.89.46-1.59s-.15-1.24-.46-1.6c-.31-.36-.73-.54-1.25-.54s-.94.18-1.25.54c-.31.36-.47.9-.47,1.6s.16,1.23.47,1.59c.31.36.73.54,1.25.54ZM414.5,223.44l1.2-2.22h.86l1.2,2.22h-.62l-1.01-1.63-1.01,1.63h-.62Z"/>
          <path class="cls-7" d="M422.68,229.6c-.54,0-1.01-.12-1.41-.35-.4-.23-.71-.57-.92-1-.22-.43-.32-.95-.32-1.54s.11-1.11.33-1.53c.22-.42.53-.74.93-.96.4-.22.87-.33,1.4-.33.35,0,.69.06,1.03.19.33.12.61.3.83.53l-.32.64c-.22-.21-.46-.37-.72-.47-.26-.1-.52-.15-.76-.15-.57,0-1.02.18-1.33.54s-.47.88-.47,1.57.16,1.21.47,1.58.76.56,1.33.56c.24,0,.49-.05.75-.14.26-.1.5-.25.73-.47l.32.63c-.23.23-.51.41-.85.54s-.67.19-1.01.19Z"/>
          <path class="cls-7" d="M428.15,229.6c-.87,0-1.55-.25-2.05-.75-.5-.5-.75-1.2-.75-2.1,0-.58.11-1.08.33-1.51.22-.43.53-.76.92-1,.4-.24.85-.36,1.36-.36s.93.11,1.28.32c.34.21.61.52.79.91.18.39.28.86.28,1.39v.33h-4.28v-.56h3.7l-.19.14c0-.59-.13-1.05-.4-1.38-.26-.33-.66-.5-1.18-.5-.55,0-.98.19-1.29.58-.31.38-.46.9-.46,1.56v.1c0,.69.17,1.21.51,1.57.34.36.82.53,1.44.53.33,0,.64-.05.93-.15.29-.1.57-.26.83-.49l.31.63c-.24.23-.55.42-.92.54-.37.13-.76.19-1.17.19Z"/>
          <path class="cls-7" d="M436.65,229.6c-.49,0-.92-.12-1.29-.35-.37-.23-.65-.56-.85-.98-.2-.43-.3-.94-.3-1.53s.1-1.11.3-1.54c.2-.43.49-.75.85-.98.37-.23.8-.34,1.29-.34s.93.13,1.29.38c.36.25.6.6.72,1.03h-.13l.12-1.31h.86c-.02.21-.04.43-.06.64-.02.22-.03.43-.03.63v4.25h-.89v-1.3h.12c-.12.43-.36.77-.73,1.02-.37.25-.79.37-1.28.37ZM436.82,228.88c.53,0,.95-.18,1.25-.54.31-.36.46-.89.46-1.59s-.15-1.24-.46-1.6c-.31-.36-.73-.54-1.25-.54s-.94.18-1.25.54c-.31.36-.47.9-.47,1.6s.16,1.23.47,1.59c.31.36.73.54,1.25.54ZM436.59,223.44l-1.45-2.22h.96l1.13,2.22h-.64Z"/>
        </g>
        <g class="cls-10">
          <path class="cls-9" d="M463.1,223.47c.91,0,1.69.21,2.24.63l-.79,1.22c-.4-.25-.86-.38-1.33-.38-.33,0-.56.12-.56.34,0,.24.29.37.67.49l.36.11c1.02.31,1.75.77,1.75,1.87,0,1.2-.99,1.99-2.45,1.99-.89,0-1.67-.24-2.26-.76l.7-1.15c.48.28,1.02.42,1.58.42.31,0,.52-.13.52-.36,0-.27-.3-.39-.76-.54l-.37-.11c-.98-.3-1.66-.68-1.66-1.68,0-1.28.93-2.13,2.35-2.13ZM484.82,223.47c1.97,0,3.3,1.26,3.3,3.14s-1.33,3.15-3.3,3.15-3.33-1.26-3.33-3.15,1.33-3.14,3.33-3.14ZM454.43,223.47c1.6,0,2.67.93,2.67,2.37v3.81h-1.82l-.03-.69c-.39.51-.99.81-1.63.8-1.29,0-2.14-.78-2.14-1.95s1.04-1.98,2.62-1.98c.38,0,.75.04,1.12.11-.02-.63-.48-.99-1.28-.99-.46-.01-.91.13-1.29.39l-.8-1.11c.69-.5,1.48-.76,2.58-.76ZM468.91,223.46c1.87,0,3.1,1.21,3.1,3.05,0,.26-.02.55-.04.76h-4.15c.11.62.44,1,1.17,1,.47,0,.92-.2,1.22-.56l1.47.71c-.52.79-1.49,1.32-2.67,1.32-1.91,0-3.19-1.22-3.19-3.08s1.23-3.21,3.1-3.21ZM459.95,223.58v6.06h-1.89v-6.06h1.89ZM473.92,221.41l4.89,4.93-.04-4.93h1.95v8.23h-1.2l-4.9-4.94.04,4.94h-1.96v-8.23h1.21ZM490.04,223.58l1.28,3.91,1.2-3.91h1.53l1.19,3.91,1.28-3.91h2.07l-2.26,6.06h-1.88l-1.16-3.72-1.16,3.72h-1.88l-2.27-6.06h2.05ZM448,221.41c1.77,0,2.94,1.08,2.94,2.69,0,1.04-.53,1.85-1.42,2.3l.8,1.22,1.3,2.02h-2.29l-1.73-2.85h-1.31v2.85h-1.95v-8.23h3.66ZM454.34,227.12c-.56,0-.91.27-.91.66s.22.63.73.63c.56,0,1.03-.43,1.05-1.19v-.02c-.29-.05-.58-.07-.88-.08ZM484.81,225.08c-.81,0-1.37.61-1.37,1.52s.54,1.53,1.37,1.53,1.35-.62,1.35-1.53-.54-1.52-1.36-1.52ZM468.91,224.95c-.63,0-.97.38-1.1,1.06h2.22c-.12-.68-.49-1.06-1.12-1.06ZM447.79,223.02h-1.5v2.16h1.32c.79,0,1.32-.43,1.32-1.08s-.46-1.08-1.14-1.08ZM459.02,220.7c.63,0,1.09.46,1.09,1.09s-.46,1.09-1.09,1.09-1.1-.46-1.1-1.09.47-1.09,1.1-1.09Z"/>
        </g>
      </g>
    </g>
  </g>
</svg>